<svg xmlns="http://www.w3.org/2000/svg" width="100" height="100" viewBox="0 0 100 100"><g transform="translate(-386 -1235)"><g transform="translate(-342.563 -2450.5)"><path d="M187.915,181.747A5.587,5.587,0,0,0,182.972,175a6.51,6.51,0,0,0-4.583,1.249l-26.695,19.547.128-6.725a5.536,5.536,0,0,0-1.7-4.149,5.8,5.8,0,0,0-4.426-1.583,6.649,6.649,0,0,0-6.21,6.326L139,214.905a19.95,19.95,0,0,0,3.817,12.362,20.659,20.659,0,0,0,16.882,8.27,24.169,24.169,0,0,0,14.256-4.739l11.255-8.242a6.524,6.524,0,0,0,2.574-3.992,5.575,5.575,0,0,0-4.674-6.712l.052-.038a6.121,6.121,0,0,0,1.621-8.482,5.737,5.737,0,0,0-4.658-2.3,6.35,6.35,0,0,0,.679-1.843,5.57,5.57,0,0,0-4.678-6.709l9.209-6.744a6.526,6.526,0,0,0,2.577-3.992Zm-3.693,2.464-12.941,9.477-7.57,5.545a.946.946,0,0,0,1.118,1.527l7.57-5.545a4.652,4.652,0,0,1,3.253-.895,3.7,3.7,0,0,1,3.3,4.5,4.625,4.625,0,0,1-1.835,2.832l-7.571,5.545a.933.933,0,0,0,.113,1.59.886.886,0,0,0,.12.043.9.9,0,0,0,.266.062c.021,0,.039.014.061.014a.946.946,0,0,0,.142-.022.917.917,0,0,0,.1-.016.94.94,0,0,0,.312-.145l6.665-4.881a4.013,4.013,0,1,1,4.717,6.441l-3.781,2.768-.009.005s0,0,0,0l-2.745,2.011a.946.946,0,1,0,1.119,1.527l2.752-2.015a4.23,4.23,0,0,1,5.926.608,3.773,3.773,0,0,1,.622,3,4.638,4.638,0,0,1-1.836,2.833l-11.255,8.242c-9.406,6.889-22.188,5.488-28.494-3.122a18.081,18.081,0,0,1-3.451-11.205l.479-25.247a4.723,4.723,0,0,1,4.432-4.473,3.909,3.909,0,0,1,3,1.058,3.663,3.663,0,0,1,1.123,2.748l-.159,8.638a.946.946,0,0,0,1.506.78l28.235-20.677a4.654,4.654,0,0,1,3.255-.895,3.7,3.7,0,0,1,3.3,4.5,4.642,4.642,0,0,1-1.837,2.833Z" transform="translate(603.449 3542.162)" fill="#16877d"/><path d="M279.86,49.206h-.025a.945.945,0,0,1-.92-.971,17.579,17.579,0,0,1,30.07-11.89.947.947,0,0,1-1.346,1.331,15.687,15.687,0,0,0-26.834,10.609.947.947,0,0,1-.945.921Z" transform="translate(487.48 3661.376)" fill="#16877d"/><path d="M308.87,87.472h-.025a.945.945,0,0,1-.92-.971,14.036,14.036,0,0,1,24.01-9.494.947.947,0,1,1-1.346,1.331,12.143,12.143,0,0,0-20.772,8.213.949.949,0,0,1-.947.921Z" transform="translate(463.435 3626.803)" fill="#16877d"/><path d="M337.44,125.653h-.025a.945.945,0,0,1-.92-.971,10.591,10.591,0,0,1,18.118-7.164.947.947,0,1,1-1.346,1.331,8.7,8.7,0,0,0-14.879,5.883.949.949,0,0,1-.947.921Z" transform="translate(439.756 3592.377)" fill="#16877d"/><path d="M432.444,211.849a17.648,17.648,0,0,1-4.653-.626.947.947,0,0,1,.5-1.826,15.686,15.686,0,0,0,17.934-22.6.946.946,0,0,1,1.664-.9,17.581,17.581,0,0,1-15.445,25.958Z" transform="translate(364.663 3533.51)" fill="#16877d"/><path d="M419.247,202.431a14.044,14.044,0,0,1-3.717-.5.947.947,0,0,1,.5-1.826,12.143,12.143,0,0,0,13.883-17.5.946.946,0,0,1,1.664-.9,14.038,14.038,0,0,1-12.33,20.727Z" transform="translate(374.826 3536.981)" fill="#16877d"/><path d="M405.643,192.631a10.612,10.612,0,0,1-2.8-.378.946.946,0,1,1,.5-1.825,8.7,8.7,0,0,0,9.946-12.537.946.946,0,0,1,1.664-.9,10.6,10.6,0,0,1-9.307,15.641Z" transform="translate(385.344 3540.888)" fill="#16877d"/></g><rect width="100" height="100" transform="translate(386 1235)" fill="none"/></g></svg>