<svg xmlns="http://www.w3.org/2000/svg" width="100" height="100" viewBox="0 0 100 100"><g transform="translate(-1431 -4475)"><g transform="translate(1371 4446.737)"><path d="M195.82,91.962a.593.593,0,1,1,0,1.187H166.467V113.5h-1.186V93.149h-2.25c-.452,0-.673,0-.887.006A8.393,8.393,0,0,1,157,92.106l-1.722-1.059V113.5h-1.186V90.317L141.045,82.3v20.234h-1.186V81.566L138.3,80.6l-.738-.454-7.623-4.687v27.065h-1.186V74.733l-1.11-.682a7.767,7.767,0,0,1-1.921-1.46,3.556,3.556,0,0,1-.817-2.326l0-.021V61.277a1.666,1.666,0,0,1,0-.494.5.5,0,0,1,.016-.081c0-.017.007-.034.012-.051a1.784,1.784,0,0,1,.857-1.089,5.946,5.946,0,0,1,3.025-.613h1.1L126.7,40.571a1.225,1.225,0,0,1-.055-.359c0-1.245,1.9-2.282,4.975-2.952a61.282,61.282,0,0,1,22.015,0c2.984.651,4.863,1.648,4.97,2.844a.594.594,0,0,1,0,.21v0a1.265,1.265,0,0,1-.035.2l-1.439,8.234,4.24-.507a.591.591,0,0,1,.137,0,2.477,2.477,0,0,1,1.967.886,3.007,3.007,0,0,1,.544,1.88,20.706,20.706,0,0,1-1.34,7.07c-.123.308-.256.608-.4.9L181.1,59a.591.591,0,1,1,0,1.182l-19.38-.017a.58.58,0,0,1-.114-.011,5.022,5.022,0,0,1-2.118,1.856c-.39.164-.591.246-.793.329-1.987.81-3.974,1.622-4.545,3.511l-.858,4.908c-.042.241-.071.457-.1.683a5,5,0,0,1-1.058,3,5.674,5.674,0,0,1-1.54.979,11.84,11.84,0,0,1-1.674.6l8.706,5.354a7.466,7.466,0,0,0,4.509.878c.374-.006.761-.011.93-.011H195.82a.593.593,0,1,1,0,1.187H163.061c-.435,0-.662,0-.865.006V91.97c.352,0,.706-.01.865-.01H195.82ZM156.388,53.018l3.034-.312a.56.56,0,0,1,.112,0,1.2,1.2,0,0,1,.938.446,1.383,1.383,0,0,1,.265.869,7.34,7.34,0,0,1-.476,2.51,2.617,2.617,0,0,1-1.281,1.527c-.169.071-.376.141-.626.227-1.061.362-3,1.023-3.232,1.969l-.5,2.882a13.953,13.953,0,0,1,3.627-1.9c.324-.132.648-.264.779-.32a5.665,5.665,0,0,0,2.557-3.274,19.4,19.4,0,0,0,1.257-6.625,1.9,1.9,0,0,0-.294-1.157,1.365,1.365,0,0,0-1.071-.431l-4.555.545-.532,3.043Zm-.912,5.22a12.8,12.8,0,0,1,2.5-1.074c.245-.083.446-.152.547-.194a1.555,1.555,0,0,0,.642-.878,6.035,6.035,0,0,0,.392-2.066.5.5,0,0,0-.012-.142l-3.367.346-.7,4.008Zm-1.25,13.711a.37.37,0,0,1,.73.128c-.041.231-.071.457-.1.693a4.851,4.851,0,0,1-.99,2.872,4.408,4.408,0,0,1-.886.614,10.672,10.672,0,0,1-1.267.583.37.37,0,1,1-.269-.689,10.082,10.082,0,0,0,1.18-.542,3.7,3.7,0,0,0,.735-.5,4.425,4.425,0,0,0,.764-2.429C154.156,72.407,154.19,72.151,154.225,71.949Zm-20.68-29.627c1.094-.174,2.295-.317,3.578-.424,1.711-.143,3.568-.22,5.506-.22,1.981,0,3.876.081,5.618.23,1.239.105,2.4.246,3.465.415.593-.1,1.152-.2,1.674-.315q.513-.112.971-.229a33.559,33.559,0,0,0-4.394-.788A66.2,66.2,0,0,0,135.218,41a33.27,33.27,0,0,0-4.316.778c.3.078.629.155.971.229.521.114,1.08.219,1.672.315Zm16.578.226c-.612-.074-1.25-.141-1.912-.2-1.729-.147-3.612-.228-5.582-.228-1.928,0-3.773.078-5.471.219-.7.058-1.376.127-2.022.207a62.164,62.164,0,0,0,7.493.428,62.174,62.174,0,0,0,7.494-.428Zm-20.529-1.154a29.138,29.138,0,0,1,5.537-1.129,66.868,66.868,0,0,1,14.918-.009,29.291,29.291,0,0,1,5.616,1.139c.984-.337,1.6-.69,1.731-1.036l.028-.159c-.025-.6-1.564-1.239-4.039-1.779a60.21,60.21,0,0,0-21.514,0c-2.446.533-3.977,1.159-4.037,1.757l.035.2c.151.339.76.685,1.723,1.015Zm-3.509,19.525v.275a1.21,1.21,0,0,0,.107.276,5.675,5.675,0,0,0,2.067,1.855l2.711,1.667-.849-4.857h-1.309a4.869,4.869,0,0,0-2.408.441.676.676,0,0,0-.318.345Zm0,2.262v7.064h0a2.438,2.438,0,0,0,.534,1.578,7.017,7.017,0,0,0,1.643,1.219l28.487,17.517V82.233l-9.478-5.828c-.511.094-1.048.173-1.6.235a27.481,27.481,0,0,1-3.034.165,24.328,24.328,0,0,1-5.858-.665,7.934,7.934,0,0,1-3.814-1.873,4.7,4.7,0,0,1-.817-2.5c-.025-.183-.048-.357-.083-.552l-.815-4.664-3.6-2.216a9.938,9.938,0,0,1-1.554-1.153Zm31.4,19.484v8.349l.133.082a6.6,6.6,0,0,0,3.833.885V83.445a7.835,7.835,0,0,1-3.966-.78ZM128.155,42l5.071,29.011c.027.153.056.37.087.6a4.077,4.077,0,0,0,.52,1.862,6.853,6.853,0,0,0,3.226,1.521,23.166,23.166,0,0,0,5.571.628,26.2,26.2,0,0,0,2.9-.156,20.041,20.041,0,0,0,2.6-.456,11.427,11.427,0,0,0,1.959-.66,4.511,4.511,0,0,0,1.22-.766,4.327,4.327,0,0,0,.7-2.3c.037-.277.072-.542.105-.734l3.709-21.215V49.33L157.111,42a13.685,13.685,0,0,1-3.474,1.167,54.274,54.274,0,0,1-11.007,1,54.275,54.275,0,0,1-11.007-1A13.713,13.713,0,0,1,128.154,42Z" transform="translate(-46.164 0)" fill="#16877d"/><g transform="translate(70 119.486)"><path d="M0-.026H0v0H0v0H0v0Z" transform="translate(0 0.031)" fill="#16877d"/></g><g transform="translate(70.006 119.486)"><path d="M0-.029v0H0v0H0Z" transform="translate(0 0.031)" fill="#16877d"/></g><g transform="translate(70.009 119.486)"><path d="M0-.029H0v0a0,0,0,0,0,0,0v0H0v0l0,0v0Z" transform="translate(0 0.031)" fill="#16877d"/></g><g transform="translate(70.014 119.486)"><path d="M0-.029v0Zm0,0v0H0v0H0v0H0v0Z" transform="translate(0 0.031)" fill="#16877d"/></g><g transform="translate(70.019 119.486)"><path d="M0-.031v0H0v0Z" transform="translate(0 0.031)" fill="#16877d"/></g><g transform="translate(70.023 119.486)"><path d="M0-.029H0v0a0,0,0,0,0,0,0v0H0v0l0,0v0Z" transform="translate(0 0.031)" fill="#16877d"/></g><g transform="translate(70.028 119.486)"><path d="M0-.029v0H0v0H0v0l0,0Zm0,0v0Z" transform="translate(0 0.031)" fill="#16877d"/></g><g transform="translate(70.035 119.486)"><path d="M0-.026v0Zm0,0v0a0,0,0,0,1,0,0v0H0v0H0Z" transform="translate(0 0.031)" fill="#16877d"/></g><g transform="translate(70.041 119.486)"><path d="M0-.031H0v0H0l0,0v0H0v0H0Z" transform="translate(0 0.031)" fill="#16877d"/></g><g transform="translate(70.048 119.486)"><path d="M0-.031v0H0v0A0,0,0,0,0,0-.031Zm0,0H0v0H0v0Z" transform="translate(0 0.031)" fill="#16877d"/></g><g transform="translate(70.055 119.486)"><path d="M0-.031H0v0H0Z" transform="translate(0 0.031)" fill="#16877d"/></g><g transform="translate(70.057 119.486)"><path d="M0-.029H0v0a0,0,0,0,0,0,0v0H0v0l0,0v0Z" transform="translate(0 0.031)" fill="#16877d"/></g><g transform="translate(70.062 119.486)"><path d="M0-.029v0H0v0H0v0H0v0A0,0,0,0,1,0-.029Z" transform="translate(0 0.031)" fill="#16877d"/></g><g transform="translate(70.068 119.486)"><path d="M0-.029v0Zm0,0v0H0v0H0v0H0v0Z" transform="translate(0 0.031)" fill="#16877d"/></g><g transform="translate(70.075 119.486)"><path d="M0-.031H0v0H0v0H0Zm0,0v0Z" transform="translate(0 0.031)" fill="#16877d"/></g><g transform="translate(70.081 119.486)"><path d="M0-.029v0Zm0,0v0H0v0H0v0H0v0Z" transform="translate(0 0.031)" fill="#16877d"/></g><g transform="translate(70.086 119.486)"><path d="M0-.029v0H0v0H0v0H0v0A0,0,0,0,1,0-.029Z" transform="translate(0 0.031)" fill="#16877d"/></g><g transform="translate(70.091 119.486)"><path d="M0-.029v0Zm0,0v0H0v0H0v0H0v0Z" transform="translate(0 0.031)" fill="#16877d"/></g><g transform="translate(70.096 119.486)"><path d="M0-.031v0H0a0,0,0,0,1,0,0H0v0H0l0,0Z" transform="translate(0 0.031)" fill="#16877d"/></g><g transform="translate(70.1 119.486)"><path d="M0-.029v0Zm0,0v0H0a0,0,0,0,1,0,0H0v0Z" transform="translate(0 0.031)" fill="#16877d"/></g><g transform="translate(70.106 119.486)"><path d="M0-.031H0v0H0l0,0Z" transform="translate(0 0.031)" fill="#16877d"/></g><g transform="translate(70.11 119.486)"><path d="M0-.031v0H0a0,0,0,0,1,0,0H0v0H0l0,0Z" transform="translate(0 0.031)" fill="#16877d"/></g><g transform="translate(70.115 119.486)"><path d="M0-.031H0v0H0l0,0,0,0H0v0H0Z" transform="translate(0 0.031)" fill="#16877d"/></g><g transform="translate(70.119 119.486)"><path d="M0-.029v0Zm0,0v0H0v0H0v0H0v0Z" transform="translate(0 0.031)" fill="#16877d"/></g><g transform="translate(70 119.494)"><path d="M0-.031v0H0v0Z" transform="translate(0 0.031)" fill="#16877d"/></g><g transform="translate(70.003 119.494)"><path d="M0-.029v0H0v0H0Z" transform="translate(0 0.031)" fill="#16877d"/></g><g transform="translate(70.007 119.494)"><path d="M0-.029v0Zm0,0v0H0a0,0,0,0,1,0,0H0v0Z" transform="translate(0 0.031)" fill="#16877d"/></g><g transform="translate(70.012 119.494)"><path d="M0-.029v0a0,0,0,0,1,0,0v0H0v0H0v0H0v0H0v0Z" transform="translate(0 0.031)" fill="#16877d"/></g><g transform="translate(70.022 119.494)"><path d="M0-.031v0H0v0Z" transform="translate(0 0.031)" fill="#16877d"/></g><g transform="translate(70.026 119.494)"><path d="M0-.029v0H0v0H0v0H0v0A0,0,0,0,1,0-.029Z" transform="translate(0 0.031)" fill="#16877d"/></g><g transform="translate(70.031 119.494)"><path d="M0-.029H0v0a0,0,0,0,0,0,0v0H0v0l0,0v0Z" transform="translate(0 0.031)" fill="#16877d"/></g><g transform="translate(70.038 119.494)"><path d="M0-.031H0l0,0v0l0,0v0H0Z" transform="translate(0 0.031)" fill="#16877d"/></g><g transform="translate(70.045 119.494)"><path d="M0-.029v0Zm0,0v0H0a0,0,0,0,1,0,0H0v0Z" transform="translate(0 0.031)" fill="#16877d"/></g><g transform="translate(70.05 119.494)"><path d="M0-.029v0H0v0H0v0H0Z" transform="translate(0 0.031)" fill="#16877d"/></g><g transform="translate(70.055 119.494)"><path d="M0-.029v0H0v0H0v0H0v0A0,0,0,0,1,0-.029Z" transform="translate(0 0.031)" fill="#16877d"/></g><g transform="translate(70.063 119.494)"><path d="M0-.031H0v0H0v0H0Zm0,0v0Z" transform="translate(0 0.031)" fill="#16877d"/></g><g transform="translate(70.069 119.494)"><path d="M0-.029v0H0v0H0Z" transform="translate(0 0.031)" fill="#16877d"/></g><g transform="translate(70.072 119.494)"><path d="M0-.029v0Zm0,0v0H0a0,0,0,0,1,0,0H0v0Z" transform="translate(0 0.031)" fill="#16877d"/></g><g transform="translate(70.078 119.494)"><path d="M0-.031H0v0H0v0Zm0,0H0Z" transform="translate(0 0.031)" fill="#16877d"/></g><g transform="translate(70.08 119.494)"><path d="M0-.029H0v0a0,0,0,0,0,0,0v0H0v0l0,0v0Z" transform="translate(0 0.031)" fill="#16877d"/></g><g transform="translate(70.085 119.494)"><path d="M0-.031v0H0v0H0v0l0,0Z" transform="translate(0 0.031)" fill="#16877d"/></g><g transform="translate(70.089 119.494)"><path d="M0-.031v0H0v0Z" transform="translate(0 0.031)" fill="#16877d"/></g></g><rect width="100" height="100" transform="translate(1431 4475)" fill="none"/></g></svg>