<svg xmlns="http://www.w3.org/2000/svg" width="101.417" height="100" viewBox="0 0 101.417 100"><g transform="translate(-502.291 -1235)"><g transform="translate(-2724.029 3225.487) rotate(-86)"><path d="M60.4,58.018,47.754,32.3a1.15,1.15,0,0,0-.151-.23L33.965,16.585a1.529,1.529,0,0,0-1.049-.517,1.584,1.584,0,0,0-1.109.379,2.144,2.144,0,0,0-.389.536A8.941,8.941,0,0,0,32.5,25.976l.19.251-5.847-2.8a1.531,1.531,0,0,0-2.035.714,2.152,2.152,0,0,0-.149.651,8.948,8.948,0,0,0,4.513,7.852l12.38,7.052L43.439,54.7a5.168,5.168,0,0,1-.781-.622l-6.676-6.422a7.525,7.525,0,0,0-8.367-1.382,1.314,1.314,0,0,0-.626,1.744,1.677,1.677,0,0,0,.172.27L38.3,61.845a4.685,4.685,0,0,0,1.2,1.038l14.825,8.876,4.595,8.078a1.051,1.051,0,0,0,.913.532,1.074,1.074,0,0,0,.515-.134,1.049,1.049,0,0,0,.394-1.428l-4.731-8.321a.993.993,0,0,0-.375-.381l-15.059-9.02a2.432,2.432,0,0,1-.655-.567L29.469,47.826a5.442,5.442,0,0,1,5.066,1.342l6.674,6.418A7.321,7.321,0,0,0,44.446,57.4a1.048,1.048,0,0,0,1.3-1.145L43.322,36.957a1.076,1.076,0,0,0-.205-.507L34.168,24.7a6.854,6.854,0,0,1-1.141-6.02L45.939,33.348l12.65,25.729a1.016,1.016,0,0,0,.172.249l7.6,8.193A1.047,1.047,0,1,0,67.894,66.1ZM26.808,25.729l8.675,4.155,5.3,6.956L30.214,30.822A6.827,6.827,0,0,1,26.808,25.729Z" transform="translate(2140.964 3101.018)" fill="#16877d"/><path d="M41.55,48.938,29.17,41.886l-1.886-15a5.065,5.065,0,0,1,.781.618l6.676,6.424a7.524,7.524,0,0,0,8.373,1.38,1.31,1.31,0,0,0,.62-1.737,1.512,1.512,0,0,0-.172-.27L32.417,19.739a4.674,4.674,0,0,0-1.2-1.034L16.394,9.829,11.8,1.748A1.048,1.048,0,0,0,9.976,2.783L14.707,11.1a1.054,1.054,0,0,0,.375.381L30.141,20.5a2.441,2.441,0,0,1,.657.567L41.257,33.76a5.422,5.422,0,0,1-5.066-1.338L29.515,26a7.321,7.321,0,0,0-3.236-1.809,1.062,1.062,0,0,0-.955.228,1.052,1.052,0,0,0-.347.917L27.4,44.626a1.069,1.069,0,0,0,.205.5l8.949,11.748A6.857,6.857,0,0,1,37.694,62.9l-12.91-14.66L12.136,22.5a1.057,1.057,0,0,0-.172-.249l-7.6-8.191a1.047,1.047,0,1,0-1.537,1.423l7.494,8.078L22.971,49.282a1.074,1.074,0,0,0,.153.23L36.76,65a1.518,1.518,0,0,0,1.049.515.79.79,0,0,0,.1,0,1.5,1.5,0,0,0,1.009-.385,2.16,2.16,0,0,0,.389-.532,8.955,8.955,0,0,0-1.082-9l-.19-.249,5.847,2.8a1.54,1.54,0,0,0,.655.147,1.573,1.573,0,0,0,.509-.086,1.509,1.509,0,0,0,.871-.785,2.162,2.162,0,0,0,.149-.643A8.947,8.947,0,0,0,41.55,48.938Zm-6.3,2.763-5.3-6.962,10.569,6.018a6.855,6.855,0,0,1,3.406,5.1Z" transform="translate(2116.791 3084.783)" fill="#16877d"/></g><rect width="100" height="100" transform="translate(503 1235)" fill="none"/></g></svg>