<svg xmlns="http://www.w3.org/2000/svg" width="100" height="100" viewBox="0 0 100 100"><g transform="translate(-910 -1235)"><g transform="translate(911 1254)"><path d="M72,90.75c0-27.273,47.083,0,47.083,0S72,118.023,72,90.75Z" transform="translate(-23 -41.832)" fill="rgba(255,255,255,0)"/><path d="M84.168,103.793c-4,0-7.145-.971-9.35-2.887C72.285,98.706,71,95.275,71,90.711s1.285-7.993,3.819-10.195c2.2-1.916,5.35-2.887,9.349-2.887a42.782,42.782,0,0,1,11.6,1.932,96.484,96.484,0,0,1,11.45,4.208,134.237,134.237,0,0,1,12.305,6.111l1.435.831-1.435.831a134.237,134.237,0,0,1-12.305,6.111,96.486,96.486,0,0,1-11.45,4.208A42.783,42.783,0,0,1,84.168,103.793Zm0-24.243c-7.567,0-11.246,3.651-11.246,11.16s3.679,11.16,11.246,11.16c5.569,0,13.269-2.065,22.267-5.972,4.679-2.032,8.6-4.083,10.633-5.188-2.032-1.105-5.954-3.156-10.633-5.188C97.436,81.616,89.737,79.551,84.168,79.551Z" transform="translate(-22.961 -41.793)" fill="#16877d"/><path d="M72,90.75c0-27.273,47.083,0,47.083,0S72,118.023,72,90.75Z" transform="translate(-23 -41.832)" fill="rgba(255,255,255,0)"/><path d="M84.168,103.793c-4,0-7.145-.971-9.35-2.887C72.285,98.706,71,95.275,71,90.711s1.285-7.993,3.819-10.195c2.2-1.916,5.35-2.887,9.349-2.887a42.782,42.782,0,0,1,11.6,1.932,96.484,96.484,0,0,1,11.45,4.208,134.237,134.237,0,0,1,12.305,6.111l1.435.831-1.435.831a134.237,134.237,0,0,1-12.305,6.111,96.486,96.486,0,0,1-11.45,4.208A42.783,42.783,0,0,1,84.168,103.793Zm0-24.243c-7.567,0-11.246,3.651-11.246,11.16s3.679,11.16,11.246,11.16c5.569,0,13.269-2.065,22.267-5.972,4.679-2.032,8.6-4.083,10.633-5.188-2.032-1.105-5.954-3.156-10.633-5.188C97.436,81.616,89.737,79.551,84.168,79.551Z" transform="translate(-22.961 -41.793)" fill="#16877d"/><path d="M71.481,88.046C57.84,64.427,112.257,64.5,112.257,64.5S85.121,111.664,71.481,88.046Z" transform="translate(-22.48 -39.128)" fill="rgba(255,255,255,0)"/><path d="M112.211,63.5h.007l1.659,0-.827,1.438a134.433,134.433,0,0,1-10.5,15.207A67.013,67.013,0,0,1,92.292,90.668c-4.139,3.265-7.961,4.92-11.359,4.92-4.129,0-7.6-2.389-10.324-7.1S67.554,79.572,69.619,76c1.687-2.923,5-5.392,9.839-7.338a66.315,66.315,0,0,1,14.115-3.627A132.89,132.89,0,0,1,112.211,63.5ZM80.933,93.666c5.391,0,12.342-5.086,20.1-14.707a133.586,133.586,0,0,0,9.47-13.511,132.245,132.245,0,0,0-16.632,1.481c-12.1,1.918-19.912,5.386-22.591,10.027-1.72,2.98-1.4,6.437.99,10.569S77.492,93.666,80.933,93.666Z" transform="translate(-22.441 -39.089)" fill="#16877d"/><path d="M70.432,83.966C46.814,70.326,93.97,43.19,93.97,43.19S94.051,97.6,70.432,83.966Z" transform="translate(-21.432 -34.966)" fill="rgba(255,255,255,0)"/><path d="M77.433,87.052a15.252,15.252,0,0,1-7.52-2.321c-4.716-2.724-7.105-6.2-7.1-10.334,0-3.4,1.659-7.219,4.923-11.357A67.031,67.031,0,0,1,78.252,52.79a134.394,134.394,0,0,1,15.2-10.5l1.438-.827,0,1.659a135.093,135.093,0,0,1-1.206,16.456,78.928,78.928,0,0,1-2.917,13.447c-1.559,4.795-3.531,8.41-5.862,10.744A10.332,10.332,0,0,1,77.433,87.052ZM92.942,44.835A133.544,133.544,0,0,0,79.44,54.3c-9.618,7.758-14.7,14.708-14.708,20.1,0,3.444,2.006,6.279,6.141,8.667a13.39,13.39,0,0,0,6.559,2.063,8.369,8.369,0,0,0,6.114-2.72c3.836-3.841,6.683-11.827,8.234-23.1A135.838,135.838,0,0,0,92.942,44.835Z" transform="translate(-21.393 -34.899)" fill="#16877d"/><path d="M69.13,82.473c-27.273,0,0-47.083,0-47.083S96.4,82.473,69.13,82.473Z" transform="translate(-20.13 -33.473)" fill="rgba(255,255,255,0)"/><path d="M69.091,83.356c-5.445,0-9.252-1.815-11.316-5.4-1.7-2.943-2.172-7.081-1.414-12.3a67.042,67.042,0,0,1,3.984-14.138,134.438,134.438,0,0,1,7.914-16.7l.831-1.435.831,1.435a134.436,134.436,0,0,1,7.914,16.7,67.043,67.043,0,0,1,3.984,14.138c.758,5.216.282,9.353-1.414,12.3C78.343,81.54,74.536,83.356,69.091,83.356Zm0-46.067A133.586,133.586,0,0,0,62.13,52.24C57.679,63.769,56.749,72.331,59.441,77c1.72,2.983,4.876,4.433,9.65,4.433s7.931-1.45,9.651-4.433c2.693-4.673,1.761-13.243-2.7-24.783A133.534,133.534,0,0,0,69.091,37.289Z" transform="translate(-20.091 -33.395)" fill="#16877d"/><path d="M66.427,83.966C42.809,97.6,42.89,43.19,42.89,43.19S90.046,70.326,66.427,83.966Z" transform="translate(-17.427 -34.966)" fill="rgba(255,255,255,0)"/><path d="M59.348,87.052a10.335,10.335,0,0,1-7.476-3.285c-2.331-2.335-4.3-5.949-5.861-10.744a78.916,78.916,0,0,1-2.916-13.447,135.063,135.063,0,0,1-1.2-16.455l0-1.659,1.438.827a134.394,134.394,0,0,1,15.2,10.5A67.031,67.031,0,0,1,69.047,63.041C72.312,67.179,73.968,71,73.971,74.4c0,4.133-2.386,7.61-7.1,10.333A15.252,15.252,0,0,1,59.348,87.052ZM43.839,44.835A135.892,135.892,0,0,0,45,59.337a76.937,76.937,0,0,0,2.84,13.1c1.463,4.5,3.277,7.853,5.391,9.97a8.372,8.372,0,0,0,6.116,2.72,13.39,13.39,0,0,0,6.56-2.063c4.135-2.388,6.143-5.223,6.141-8.667,0-5.391-5.09-12.341-14.708-20.1A133.556,133.556,0,0,0,43.839,44.835Z" transform="translate(-17.388 -34.899)" fill="#16877d"/><path d="M62.346,88.046C48.706,111.664,21.57,64.5,21.57,64.5S75.987,64.427,62.346,88.046Z" transform="translate(-13.346 -39.128)" fill="rgba(255,255,255,0)"/><path d="M21.5,63.5h.007a132.893,132.893,0,0,1,18.636,1.531,66.322,66.322,0,0,1,14.116,3.627C59.1,70.6,62.414,73.073,64.1,76c2.064,3.576,1.731,7.779-.99,12.491s-6.195,7.1-10.324,7.1c-3.4,0-7.22-1.655-11.36-4.92A67.011,67.011,0,0,1,31.173,80.147,134.423,134.423,0,0,1,20.67,64.94L19.842,63.5ZM52.787,93.666c3.393,0,6.306-2.066,8.66-6.14,2.386-4.132,2.71-7.589.99-10.569-2.68-4.642-10.492-8.11-22.593-10.028a132.247,132.247,0,0,0-16.63-1.481,133.581,133.581,0,0,0,9.47,13.511C40.444,88.581,47.4,93.666,52.787,93.666Z" transform="translate(-13.278 -39.089)" fill="#16877d"/><path d="M60.853,90.75c0,27.273-47.083,0-47.083,0S60.853,63.477,60.853,90.75Z" transform="translate(-11.853 -41.833)" fill="rgba(255,255,255,0)"/><path d="M48.568,77.629c4,0,7.145.971,9.35,2.887,2.533,2.2,3.818,5.631,3.818,10.2s-1.285,7.993-3.819,10.195c-2.2,1.916-5.35,2.887-9.349,2.887a42.782,42.782,0,0,1-11.6-1.932,96.486,96.486,0,0,1-11.45-4.208A134.238,134.238,0,0,1,13.21,91.543l-1.435-.831,1.435-.831a134.238,134.238,0,0,1,12.305-6.111,96.487,96.487,0,0,1,11.45-4.208A42.782,42.782,0,0,1,48.568,77.629Zm0,24.243c7.567,0,11.246-3.651,11.246-11.16s-3.679-11.16-11.246-11.16c-5.573,0-13.28,2.068-22.287,5.981-4.673,2.03-8.585,4.076-10.613,5.179C17.7,91.816,21.623,93.868,26.3,95.9,35.3,99.806,43,101.872,48.568,101.872Z" transform="translate(-11.775 -41.793)" fill="#16877d"/></g><rect width="100" height="100" transform="translate(910 1235)" fill="none"/></g></svg>