<svg xmlns="http://www.w3.org/2000/svg" width="100" height="100" viewBox="0 0 100 100"><g transform="translate(-770 -1235)"><path d="M102.02,38.6a10.48,10.48,0,0,0-4.19-.814,13.46,13.46,0,0,0-7.477,2.284C93.1,34.051,96.182,29.93,98.99,28.6l-.91-1.919c-2.108,1-4.157,3.148-6.044,5.961-.338-3.748-2.43-7.644-5.43-9.493l-1.194-.736-.385,1.348c-1.244,4.366.92,10.213,4.658,12.87a67.214,67.214,0,0,0-3.921,9.308c-1.9-.61-3.746-1.58-3.746-2.523,0-2.824-4.366-7.015-10.4-7.015-6.713,0-10.748,3.876-13.113,7.734a16.544,16.544,0,0,0-4.176-8.946c-2.726-3.411-5.3-6.633-3.535-19.515l.286-2.095L49.23,14.6c-5.278,2.91-11.847,12.477-11.618,22.169l-1.191-.583C28.44,32.282,20.9,28.6,15.272,18.6L13.66,15.737,13.291,19a67.342,67.342,0,0,0,2.237,26.58c2.575,8.276,6.89,14.439,12.6,18.072-6.1.674-15.678,3.478-22.378,9.545l-.269.244-.064.356c-.835,4.679,3.292,16.484,8.053,18.389l.662.264.5-.514c2.345-2.43,9.157-8.739,12.971-9.309A59.471,59.471,0,0,0,45.322,85.81c17.268,0,22.175-12.021,23.565-19.193C70.589,57.51,79.7,52.05,84.575,49.74a54.082,54.082,0,0,0-2.2,12.622l2.124.054a36.529,36.529,0,0,1,.475-4.7,10.64,10.64,0,0,0,3.823.676,12.734,12.734,0,0,0,9.624-4.139l.887-1.088-1.288-.557a10.468,10.468,0,0,0-4.187-.813,13.236,13.236,0,0,0-8.289,2.9c.421-1.966.967-4.016,1.6-6.07.307-.118.489-.182.507-.188l3.782-1.279-3.593-.7c.32-.94.66-1.874,1.016-2.795a10.573,10.573,0,0,0,3.939.72,12.742,12.742,0,0,0,9.624-4.137l.888-1.085ZM39.8,37.853c-.691-8.006,4.12-16.357,8.607-20.1-1.244,11.865,1.555,15.369,4.268,18.764,2.02,2.529,3.93,4.919,3.968,11.3-.269.689-.484,1.325-.653,1.877-.026-.03-.054-.057-.08-.087q-.482-.538-.967-1.048c-.212-.222-.425-.434-.637-.648-.139-.14-.278-.283-.417-.42-.246-.241-.493-.474-.74-.706-.1-.1-.205-.193-.309-.287q-.4-.372-.811-.727l-.214-.186c-.3-.255-.591-.5-.887-.747l-.06-.048C49.9,44,48.929,43.276,47.951,42.6l-.158-.111q-.352-.241-.706-.473-.238-.159-.475-.314-.282-.182-.566-.361c-.224-.141-.446-.279-.669-.414-.14-.085-.28-.172-.42-.255q-.487-.293-.971-.57l-.14-.082q-1.192-.682-2.355-1.29l-.317-.166q-.4-.211-.805-.416l-.425-.217ZM66.8,66.221c-1.544,7.969-6.524,17.466-21.479,17.466a57.7,57.7,0,0,1-17.3-3.151l-.209-.068-.219.022c-4.651.449-11.768,7.23-13.935,9.4-3.188-2.178-6.634-11.329-6.2-15.371C15.1,67.8,26.478,65.611,30.846,65.611a8.9,8.9,0,0,1,1.371.09l9.6,1.591-9.029-3.623C18.942,58.112,14.038,39.007,15.119,22.408c5.708,8.519,12.849,12.01,20.37,15.685q1.188.58,2.383,1.172l.452.227q.66.331,1.337.681.457.236.915.477l.221.118q.534.285,1.069.579l.168.093q.556.31,1.112.633l.15.087q.565.331,1.129.679l.137.083q.613.38,1.222.78l.031.02q.6.395,1.193.814c.182.129.365.264.547.4.2.148.406.294.609.446.231.174.461.354.692.534.154.12.307.24.461.363.241.194.483.4.724.6q.218.184.435.37.361.311.719.636c.15.135.3.274.449.413.228.213.457.428.685.65.17.166.341.339.51.51.205.205.41.411.613.625s.428.461.641.7c.16.175.319.344.477.523.374.426.746.863,1.116,1.318l1.46,1.8h0l0,0,.379-2.121.028-.161a21.4,21.4,0,0,1,1.136-3.718l.076-.19v-.059c1.651-4.021,5.307-9.637,12.855-9.637,4.978,0,8.276,3.48,8.276,4.892,0,2.095,2.184,3.418,4.183,4.191C78.967,49.933,68.748,55.807,66.8,66.221Zm27.033-12.3a9.457,9.457,0,0,1,1.73.155A11.459,11.459,0,0,1,88.8,56.269a9.652,9.652,0,0,1-1.668-.141A11.308,11.308,0,0,1,93.835,53.92ZM86.8,26.007A11.527,11.527,0,0,1,89.949,34.1,11.246,11.246,0,0,1,86.8,26.007ZM92.8,42.261a9.521,9.521,0,0,1-1.666-.141,11.3,11.3,0,0,1,6.7-2.208,9.557,9.557,0,0,1,1.731.155A11.472,11.472,0,0,1,92.8,42.261Z" transform="translate(765.692 1231.424)" fill="#16877d"/><rect width="100" height="100" transform="translate(770 1235)" fill="none"/></g></svg>