<svg xmlns="http://www.w3.org/2000/svg" width="100" height="100" viewBox="0 0 100 100"><g transform="translate(-1623 -4624)"><path d="M142.153,70.895a4.494,4.494,0,0,0-.79-3.453,3.385,3.385,0,0,0-.832-2.886,3.257,3.257,0,0,0-1.854-1.042c-2.92-6.174-8.561-10.194-15.353-10.194h0a18.307,18.307,0,0,0-14.012,6.7.759.759,0,0,1-1.174,0,18.306,18.306,0,0,0-14.012-6.7c-6.8,0-12.45,4.016-15.369,10.2h0a3.256,3.256,0,0,0-1.84,1.039,3.383,3.383,0,0,0-.832,2.886,4.5,4.5,0,0,0-.79,3.453,6.045,6.045,0,0,0,.208,4.4,8.874,8.874,0,0,0,2.044,4.823,39.059,39.059,0,0,0,2.189,6.342,2.411,2.411,0,0,0-.231.174,2.159,2.159,0,0,0-.618,2.326A16.339,16.339,0,0,0,88.64,99.425c.6.234,1.213.434,1.836.609,7.942,6.388,14.446,8.272,17.1,8.8h0a5.812,5.812,0,0,0,2.308,0c2.649-.532,9.149-2.421,17.085-8.8a19.364,19.364,0,0,0,1.846-.613,16.327,16.327,0,0,0,9.754-10.468,2.159,2.159,0,0,0-.618-2.326,2.268,2.268,0,0,0-.234-.176,39.29,39.29,0,0,0,2.2-6.364,8.853,8.853,0,0,0,2.032-4.8h0a6.044,6.044,0,0,0,.205-4.4ZM94.126,54.932A16.7,16.7,0,0,1,106.9,61.058a2.353,2.353,0,0,0,3.645,0,16.7,16.7,0,0,1,12.776-6.126c5.959,0,10.948,3.443,13.671,8.8h0a3.036,3.036,0,0,0-.466.265,21.865,21.865,0,0,1-5.913,2.864h0a1.14,1.14,0,0,1-1.383-.522c-.826-1.085-1.063-4.282-.859-5.922a3.452,3.452,0,0,0-2.723-4.108h0a3.093,3.093,0,0,0-3.614,2.438c-.161.695-.314,1.4-.47,2.1-1.664,7.522-3.382,15.3-11.31,21.264-.491.37-1,.719-1.524,1.052-.528-.335-1.046-.68-1.541-1.052-7.93-5.966-9.649-13.743-11.312-21.266-.156-.706-.31-1.406-.47-2.1A3.091,3.091,0,0,0,91.8,56.3a3.452,3.452,0,0,0-2.723,4.108c.206,1.639-.032,4.836-.859,5.922h0a1.141,1.141,0,0,1-1.383.522,21.8,21.8,0,0,1-5.912-2.864h0a3.02,3.02,0,0,0-.468-.268c2.725-5.35,7.715-8.792,13.675-8.792ZM78.269,78.311a5.11,5.11,0,0,0,.788.354.805.805,0,0,0,.517-1.526,4.714,4.714,0,0,1-2.541-2.37,4.456,4.456,0,0,1-.416-1.461A10.377,10.377,0,0,0,80.1,75.59a.805.805,0,1,0,.6-1.493c-1.557-.626-3.364-1.833-3.791-3.341A2.5,2.5,0,0,1,77,69.169a10.862,10.862,0,0,0,3.882,2.67c.232.11.462.219.692.334h0a.805.805,0,1,0,.716-1.443c-.238-.118-.478-.232-.719-.346h0a9.226,9.226,0,0,1-3.471-2.4,1.7,1.7,0,0,1,.013-2.347A1.421,1.421,0,0,1,80,65.315a23.023,23.023,0,0,0,6.516,3.122A2.715,2.715,0,0,0,89.5,67.31c1.253-1.645,1.383-5.434,1.175-7.1a1.861,1.861,0,0,1,1.4-2.322h0A1.485,1.485,0,0,1,93.845,59.1q.237,1.035.467,2.088c1.646,7.444,3.51,15.881,11.918,22.2.309.232.629.458.956.677h0a34.925,34.925,0,0,1-18.292,3.915c-4.695-3.236-8.73-6.745-10.625-9.677Zm7.166,9.2a15.456,15.456,0,0,1-3.56-1.193,2.228,2.228,0,0,0-.519-.177c-.475-1.045-.895-2.1-1.26-3.146h0a51.481,51.481,0,0,0,5.339,4.516Zm24.128,19.744a4.259,4.259,0,0,1-1.674,0c-2.237-.449-7.359-1.923-13.809-6.518a29.024,29.024,0,0,0,3.353.189,44.03,44.03,0,0,0,11.292-1.646,44.03,44.03,0,0,0,11.292,1.646,28.974,28.974,0,0,0,3.325-.187c-6.434,4.579-11.546,6.068-13.779,6.516ZM137.04,88.437a14.785,14.785,0,0,1-8.817,9.487c-4.934,1.933-10.879,1.664-16.473.453a59.823,59.823,0,0,0,9.54-4.041c2.308-1.247,5.086-2.9,7.848-4.778a20.006,20.006,0,0,0,7.15-1.794.518.518,0,0,1,.595.077.533.533,0,0,1,.157.595Zm-.933-2.3h0a2.19,2.19,0,0,0-.532.18,15.4,15.4,0,0,1-3.552,1.189,51.446,51.446,0,0,0,5.36-4.539c-.371,1.056-.8,2.118-1.276,3.17Zm4.311-11.372a4.71,4.71,0,0,1-2.541,2.37.805.805,0,1,0,.515,1.526,5.121,5.121,0,0,0,.792-.356c-2.932,4.539-10.972,10.456-18.66,14.611-6.876,3.717-21.205,8.953-31.3,5a14.789,14.789,0,0,1-8.818-9.486.533.533,0,0,1,.157-.595.517.517,0,0,1,.6-.077c7.663,3.785,21.993,1.7,30.063-4.368,8.405-6.324,10.27-14.762,11.915-22.205.155-.7.309-1.4.467-2.088h0a1.485,1.485,0,0,1,1.765-1.213,1.861,1.861,0,0,1,1.4,2.322c-.209,1.664-.079,5.452,1.174,7.1h0a2.717,2.717,0,0,0,2.982,1.127,23.025,23.025,0,0,0,6.516-3.122h0a1.422,1.422,0,0,1,1.892.325,1.7,1.7,0,0,1,.013,2.347,9.228,9.228,0,0,1-3.471,2.4c-.241.114-.483.228-.719.346h0a.805.805,0,1,0,.716,1.443c.23-.115.461-.223.692-.334h0a10.869,10.869,0,0,0,3.882-2.669,2.51,2.51,0,0,1,.086,1.587c-.429,1.509-2.237,2.715-3.79,3.341a.805.805,0,1,0,.6,1.493,10.377,10.377,0,0,0,3.478-2.278,4.442,4.442,0,0,1-.411,1.457Z" transform="translate(1564.024 4592.679)" fill="#16877d"/><rect width="100" height="100" transform="translate(1623 4624)" fill="none"/></g></svg>