<svg xmlns="http://www.w3.org/2000/svg" width="100" height="100" viewBox="0 0 100 100"><g transform="translate(-624 -1235)"><g transform="translate(-1574 -2213)"><path d="M105.349,24.983a23.338,23.338,0,0,0-5.2-8.7c-3.362-3.655-6.207-5.11-8-5.687a3.441,3.441,0,0,0-1.054-.165h0a3.456,3.456,0,0,0-2.344.917l-6.92,6.364a20.987,20.987,0,0,1-7.619,4.492,24.388,24.388,0,0,0-8.852,5.219l-9.684,8.907a4.651,4.651,0,0,0-.634-.824L54.9,33.819a2.979,2.979,0,0,0-1.584-2.367c.717-.082,1.448-.183,2.2-.32a4.861,4.861,0,0,0,3.948-5.456,3.224,3.224,0,0,0-3.14-2.8c-5.282-.112-11.587-2.842-11.651-2.869-3.1-1.436-10.716-2.713-13.844-3.195a1.337,1.337,0,0,1-.7-.338L22.373,9.37a3.466,3.466,0,0,0-2.347-.914h0a3.435,3.435,0,0,0-1.243.232,23.339,23.339,0,0,0-8.222,5.92C7.205,18.268,6,21.228,5.576,23.065a3.464,3.464,0,0,0,1.038,3.322l6.931,6.352a20.989,20.989,0,0,1,5.125,7.208,24.387,24.387,0,0,0,5.955,8.376l10.081,9.239a5.172,5.172,0,0,0-2.607-.046c-.036-.029-.071-.062-.107-.09a2.633,2.633,0,0,0-1.627-.562A2.662,2.662,0,0,0,27.726,59.9a10.081,10.081,0,0,0,.775,2.587,3.41,3.41,0,0,0,.445.925,19.65,19.65,0,0,0,1.442,2.314,57.523,57.523,0,0,1,3.255,7.732c1.156,3.632,5.837,10.843,7.8,13.773a1.689,1.689,0,0,1,.284.942v9.536a3.423,3.423,0,0,0,1.883,3.061,26.183,26.183,0,0,0,11.135,2.357c5.974,0,9.35-1.487,10.831-2.374a3.412,3.412,0,0,0,1.639-2.92V89.554A23.623,23.623,0,0,1,69.3,79.82a27.02,27.02,0,0,0,2.384-11.134v-7.1l8.152-7.5a29.3,29.3,0,0,0,.026,5.583,4.848,4.848,0,0,0,4.849,4.405c.083,0,.167,0,.251-.006a3.224,3.224,0,0,0,3.056-2.89c.562-5.254,3.819-11.3,3.852-11.364,1.7-2.966,3.616-10.445,4.363-13.522a1.338,1.338,0,0,1,.4-.671l7.74-7.119A3.445,3.445,0,0,0,105.349,24.983Zm-2.143,2.26-3.89,3.578a32.108,32.108,0,0,0-2.391-4.67l5.018-4.615a17.242,17.242,0,0,1,1.764,3.926A1.758,1.758,0,0,1,103.206,27.243ZM84.869,62.359h0c-.055,0-.11,0-.164,0a3.157,3.157,0,0,1-3.146-2.857,23.249,23.249,0,0,1,.42-7.792.776.776,0,0,0-.741-.985.746.746,0,0,0-.51.207L71.679,59.26l-.855.786-.855.787-3.536,3.252a2.627,2.627,0,0,1-3.715-.159l-.052-.057a2.632,2.632,0,0,1,.156-3.718l.1-.092,1.173-1.079,5.874-5.4.855-.787L71.679,52l1.988-1.828a.78.78,0,1,0-1.057-1.148l-.931.859-.855.789-.855.789-5.874,5.419-.9.826-.007.006-.855.788L59.7,60.938a2.632,2.632,0,0,1-3.721-.153l-.085-.093a2.657,2.657,0,0,1-.2-3.32,2.644,2.644,0,0,1,.354-.4l.3-.275.094-.087,1.093-1.006,1.553-1.428,1.1-1.016.814-.749,1.331-1.224.855-.786.039-.036.863-.794,4.071-3.744.663-.61.215-.2A.765.765,0,1,0,68.008,43.9l-.09.082-.84.773L65.91,45.825l-1.464,1.346-1.179,1.084-.076.07-.668.614-.187.172-.545.5-1.336,1.229-.651.6-.658.6-2.152,1.98a2.794,2.794,0,0,1-1.781.695,2.626,2.626,0,0,1-.956-.187,2.607,2.607,0,0,1-.982-.663l-.07-.077a2.68,2.68,0,0,1,.156-3.718L54.64,48.9l.718-.66.989-.91.149-.137,3.945-3.628.632-.581L61.7,42.4l.633-.582.791-.728.731-.672,1.057-.972a.787.787,0,1,0-1.066-1.159l-.723.665-.635.584-.633.582-1.321,1.215-.632.581-.632.581-2.482,2.283a2.473,2.473,0,0,1-2.154.657c-.023,0-.046,0-.068-.007a2.634,2.634,0,0,1-1.34-4.524l1.409-1.3.742-.682.114-.1.518-.476.289-.266.343-.315,9.873-9.081a22.834,22.834,0,0,1,8.236-4.855,22.834,22.834,0,0,0,8.236-4.855l2.1-1.932a29.632,29.632,0,0,1,12.877,15.02l-2.5,2.3a3.044,3.044,0,0,0-.9,1.526c-.635,2.615-2.57,10.25-4.2,13.109,0,0-3.445,6.347-4.049,12A1.526,1.526,0,0,1,84.869,62.359Zm-14.9,6.327A25.485,25.485,0,0,1,67.735,79.12,25.487,25.487,0,0,0,65.5,89.554v1.564a22.187,22.187,0,0,1-7.183,1.894,3.8,3.8,0,0,0-7.3-.077,37.645,37.645,0,0,1-7.583-1.783V88.176a3.4,3.4,0,0,0-.573-1.892c-1.669-2.5-6.479-9.856-7.593-13.359a64.318,64.318,0,0,0-2.435-6.119c1.856-.742,2.972-1.618,3.313-2.606a2.1,2.1,0,0,0-.17-1.773,24.32,24.32,0,0,0-2.288-3.317,3.713,3.713,0,0,1,1.945.757,16.253,16.253,0,0,1,3.745,3.985.853.853,0,0,0,1.575-.454V41.875c0-.023.006-.044.007-.067a2.945,2.945,0,0,0,.455.67,2.985,2.985,0,0,0,2.174.944h.52a2.933,2.933,0,0,0,2.768-1.913,2.9,2.9,0,0,1,.037.366V58.321a.871.871,0,0,0,.871.871.821.821,0,0,0,.106-.021.868.868,0,0,0,.765-.851l-.01-6.858,0-2.077-.011-7.293,0-2.111,0-1.266a2.907,2.907,0,0,1,.133-.831,2.938,2.938,0,0,0,2.662,2.54,4.311,4.311,0,0,0-.645,1.526,4.356,4.356,0,0,0,.112,2.2,4.3,4.3,0,0,0,.93,1.627,4.354,4.354,0,0,0,2.271,1.3L52.2,48.816a4.424,4.424,0,0,0-.257,6.135l.071.077a4.31,4.31,0,0,0,1.514,1.052,4.349,4.349,0,0,0,.8.259,4.311,4.311,0,0,0-.839,2.391c0,.077.012.152.013.228a4.3,4.3,0,0,0,1.13,2.892l.085.092a4.343,4.343,0,0,0,5.579.691,4.318,4.318,0,0,0,1.11,2.392l.053.058a4.337,4.337,0,0,0,6.13.259l2.378-2.187v5.53ZM65.5,97.836a1.687,1.687,0,0,1-.807,1.453c-1.324.793-4.385,2.131-9.953,2.131a23.882,23.882,0,0,1-10.36-2.171,1.727,1.727,0,0,1-.949-1.537V92.951a39.707,39.707,0,0,0,7.455,1.711,3.816,3.816,0,0,0,7.524.093A24.9,24.9,0,0,0,65.5,93v4.831ZM31.707,59.466A19.259,19.259,0,0,1,34.5,63.292c.485.828-2.354,1.948-2.354,1.948-.116-.153-.212-.3-.319-.443a18.094,18.094,0,0,1-1.39-2.217c-.109-.209-.21-.414-.3-.608a9.356,9.356,0,0,1-.6-1.7c-.052-.218-.1-.425-.121-.61a.952.952,0,0,1,.945-1.087.936.936,0,0,1,.579.2c.028.022.06.051.089.074A8.1,8.1,0,0,1,31.707,59.466ZM14.7,31.479l-2.771-2.54a30.341,30.341,0,0,1,13.86-14.118l3.181,2.915a3.044,3.044,0,0,0,1.6.768c2.66.409,10.432,1.687,13.42,3.071,0,0,6.617,2.892,12.3,3.012a1.526,1.526,0,0,1,1.482,1.321,3.158,3.158,0,0,1-2.56,3.541,27.957,27.957,0,0,1-4.906.478,16.8,16.8,0,0,1-2.893-.233.855.855,0,0,0-.148-.013.764.764,0,0,0-.52,1.326l2.368,2.17a2.931,2.931,0,0,0-.14.687L48.9,34.912a4.684,4.684,0,0,0-.624.514,4.612,4.612,0,0,0-1.34,2.866l-.023-.016-.125-1.489a2.974,2.974,0,0,0-5.931.046l-.112,1.631a4.631,4.631,0,0,0-1.5,3.41v8.25l-2.6-2.385A.787.787,0,0,0,35.576,48.9l3.666,3.36v7.115c-.051-.04-.105-.072-.154-.116L25.78,47.062a22.834,22.834,0,0,1-5.54-7.792h0A22.835,22.835,0,0,0,14.7,31.479Zm38.554,3.179.053.629.053.628.034.4.072.856.017.2a1.264,1.264,0,0,1-1.259,1.37H51.7a1.264,1.264,0,0,1-1.261-1.35l.1-1.426.062-.911.033-.479.029-.426.012-.169a1.274,1.274,0,0,1,.711-1.036,1.236,1.236,0,0,1,.55-.141,1.264,1.264,0,0,1,1.26,1.158l.031.371Zm-7.888,5.684a1.264,1.264,0,0,1-1.259,1.37h-.52a1.264,1.264,0,0,1-1.261-1.35l.069-1,.068-.993.064-.934.033-.481a1.264,1.264,0,0,1,2.521-.02l.038.456.077.915.08.952Zm4.722-8.585-.133-.122.286,0C50.19,31.674,50.14,31.716,50.089,31.756ZM91.1,12.144a1.733,1.733,0,0,1,.531.083,14.5,14.5,0,0,1,4.65,2.723L91.37,19.462a28.49,28.49,0,0,0-4.949-3.645l3.488-3.208A1.752,1.752,0,0,1,91.1,12.144Zm7.8,5.3a25.636,25.636,0,0,1,2.114,2.63L95.972,24.7A31.477,31.477,0,0,0,92.6,20.649l4.957-4.559C97.993,16.5,98.436,16.948,98.893,17.444Z" transform="translate(2192.511 3441.544)" fill="#16877d"/><path d="M74.685,68.746a.847.847,0,0,0-1.021.623.861.861,0,0,0,.611,1.038,1.062,1.062,0,0,1,.769.826.855.855,0,1,0,1.69-.257A2.75,2.75,0,0,0,74.685,68.746Z" transform="translate(2182.641 3432.816)" fill="#16877d"/><path d="M66.406,65.566a2.412,2.412,0,0,0-.3-.1.851.851,0,0,0-.826.269.828.828,0,0,0-.205.365.855.855,0,0,0,.633,1.03,1.068,1.068,0,0,1,.758.823.855.855,0,1,0,1.69-.257A2.722,2.722,0,0,0,66.406,65.566Z" transform="translate(2183.885 3433.29)" fill="#16877d"/><path d="M62.887,57.419a.8.8,0,0,0-.087,0,.848.848,0,0,0-.31,1.667,1.235,1.235,0,0,1,.31.148.966.966,0,0,1,.448.676.856.856,0,0,0,.974.717.877.877,0,0,0,.717-.974,2.6,2.6,0,0,0-.431-1.09A2.871,2.871,0,0,0,62.887,57.419Z" transform="translate(2184.351 3434.454)" fill="#16877d"/><path d="M63.715,46.694l-.05-.029a2.757,2.757,0,0,0-.706-.3.813.813,0,0,0-.15,0,.846.846,0,0,0-.248,1.668,1.214,1.214,0,0,1,.248.109.983.983,0,0,1,.511.714.856.856,0,0,0,.974.717.829.829,0,0,0,.223-.081.844.844,0,0,0,.494-.893,2.6,2.6,0,0,0-.494-1.18A2.8,2.8,0,0,0,63.715,46.694Z" transform="translate(2184.34 3436.054)" fill="#16877d"/></g><rect width="100" height="100" transform="translate(624 1235)" fill="none"/></g></svg>