<svg xmlns="http://www.w3.org/2000/svg" width="321" height="82" viewBox="0 0 321 82"><g transform="translate(-380 -48)"><text transform="translate(478 118.462)" fill="#fff" font-size="20" font-family="Lora-Regular, Lora"><tspan x="0" y="0">Atelier für Entspannung</tspan></text><g transform="translate(0 -4930.5)"><g transform="translate(-543 4949.5)"><path d="M58.971,23.72a60.313,60.313,0,0,1-7.347-.443A11.418,11.418,0,0,1,46.5,21.694a6.4,6.4,0,0,1-2.913-5.519,5.8,5.8,0,0,1,3.963-5.112,6.921,6.921,0,0,1,4.026,0,5.637,5.637,0,0,0-1.321-2.606,6.333,6.333,0,0,0-4.524-2.208h-.072c-3.2,0-6.333,2.054-9.265,4.053l-.19.127c-17.01,11.382-30.78,11.83-37.421,12a1.186,1.186,0,0,1-1.217-1.154,1.186,1.186,0,0,1,1.154-1.217c12.024-.326,27.5-5.8,36.163-11.6l.154-.127c3.149-2.108,6.722-4.524,10.685-4.46A8.659,8.659,0,0,1,52,6.9a7.663,7.663,0,0,1,2.036,6.035l-.2,1.62-1.475-.688a5.582,5.582,0,0,0-4.044-.543A3.438,3.438,0,0,0,46.006,16.3a4.08,4.08,0,0,0,1.81,3.42,9.545,9.545,0,0,0,4.09,1.2c4.756.584,13.8-.1,18.553-.679a1.185,1.185,0,1,1,.29,2.353c-2.5.306-9.254,1.132-11.777,1.122ZM10.819,41.083,20.826,31c1.891-1.909,4.026-4.062,6.451-4.768a4.714,4.714,0,0,1,4.831,1.276,7.953,7.953,0,0,0-4.877,5.04,9.88,9.88,0,0,0,1.547,9.138c2.642,3.185,8.071,4.108,13.363-.226a41.909,41.909,0,0,0,4.831-4.985,36.4,36.4,0,0,1,4.8-4.913,9.22,9.22,0,0,1,6.541-2.117,5.112,5.112,0,0,1,2.307.9c-1.891.9-4.388,2.714-4.578,5.863a6.333,6.333,0,0,0,4.207,6.161c2.2.76,12.285-2.728,14.095-3.126a1.185,1.185,0,0,0-.489-2.316c-1.656.353-11.29,3.75-12.874,3.2a3.972,3.972,0,0,1-2.606-3.773c.109-1.882,1.61-3.311,4.7-4.524l1.466-.561-.9-1.267a7.329,7.329,0,0,0-5.021-2.931A11.509,11.509,0,0,0,50.3,29.683a38.787,38.787,0,0,0-5.121,5.22,40.216,40.216,0,0,1-4.524,4.7c-3.094,2.542-7.537,3.556-10.043.57a7.5,7.5,0,0,1-1.122-6.849,5.228,5.228,0,0,1,4.524-3.737h1.719l-.606-1.61a6.885,6.885,0,0,0-8.5-4.044c-3.013.9-5.374,3.266-7.464,5.374L9.127,39.436c-1.9,1.918-1.546,2.287-5.085,3.049s-8.833-.612-9.07,0a1.189,1.189,0,0,0,.679,1.538c.557.215,7.795,1,8.392,1C6.929,45.028,9.48,42.458,10.819,41.083ZM65.356,63.349c.627-.187,2.335-.848,2.147-1.475a1.185,1.185,0,0,0-1.475-.8c-2.6.769-5.555,1.647-8.251,1.095a6.478,6.478,0,0,1-5.166-5.492,3.456,3.456,0,0,1,1.022-2.931,4.189,4.189,0,0,1,3.384-1.068l2.886.335-1.81-2.262c-3.194-3.963-10.007-3.936-14.476-1.638a44.56,44.56,0,0,0-6.994,4.84A55.625,55.625,0,0,1,31.7,57.577c-7.32,4.614-16.982,5.655-28.69,3.112-.65-.15-1.876-2.431-2.025-1.781S4.4,64.321,4.043,63.349c12.341,2.714,21.045,1.221,28.889-3.728a57.657,57.657,0,0,0,5.13-3.782,41.321,41.321,0,0,1,6.6-4.587,11.62,11.62,0,0,1,9.482-.552,6.171,6.171,0,0,0-2.18,1.366,5.845,5.845,0,0,0-1.728,4.822,8.876,8.876,0,0,0,7.048,7.6,11.247,11.247,0,0,0,2.316.235A16.884,16.884,0,0,0,65.356,63.349Z" transform="translate(929.258 32.412)" fill="#fff"/><g transform="translate(923 29)" fill="none" stroke="#fff" stroke-width="2"><circle cx="41" cy="41" r="41" stroke="none"/><circle cx="41" cy="41" r="40" fill="none"/></g></g><g transform="translate(0 -215.538)"><path d="M1.925,1.548A2.791,2.791,0,0,0,3.862.928,2.2,2.2,0,0,0,4.521-.447q.077-.794.077-2.77V-19.955q0-1.627.116-2.79l-2.79.155v-1.7h8.717v1.279a2.791,2.791,0,0,0-1.937.62,2.2,2.2,0,0,0-.659,1.375q-.077.794-.077,2.77V-11.9h2.906l4.843-7.633a14.759,14.759,0,0,1,2.751-3.255l-2.363.077v-1.589h8.33v1.279a12.5,12.5,0,0,0-3,.581,6.831,6.831,0,0,0-2.383,1.511,15.606,15.606,0,0,0-2.441,3.138l-3.8,6.044a8.081,8.081,0,0,1,1.472,1.182,13.908,13.908,0,0,1,1.1,1.279q.484.639.639.833l4.339,5.773A23.057,23.057,0,0,0,22.75.115,5.56,5.56,0,0,0,24.4,1.277a4.6,4.6,0,0,0,1.666.271V2.827H21.336q-1.007,0-3.913-3.8L12.773-7.247q-.93-1.2-1.608-1.976a6.061,6.061,0,0,0-1.3-1.162l-1.9.039v8.562a29.252,29.252,0,0,1-.116,3.061l2.79-.155v1.7H1.925Zm35.064,1.9a9.788,9.788,0,0,1-4.9-1.259,9.285,9.285,0,0,1-3.526-3.506,9.962,9.962,0,0,1-1.3-5.076,11.709,11.709,0,0,1,1.279-5.482,9.886,9.886,0,0,1,3.506-3.874,9.029,9.029,0,0,1,4.94-1.414,9.665,9.665,0,0,1,4.921,1.3,9.53,9.53,0,0,1,3.545,3.545,9.812,9.812,0,0,1,1.3,5,11.518,11.518,0,0,1-1.3,5.424,10.144,10.144,0,0,1-3.526,3.913A8.939,8.939,0,0,1,36.989,3.447ZM37.3,1.9A4.47,4.47,0,0,0,41.464-.428,11.431,11.431,0,0,0,42.8-6.2a14.347,14.347,0,0,0-1.453-6.7,4.663,4.663,0,0,0-4.359-2.79,4.749,4.749,0,0,0-4.32,2.363,10.9,10.9,0,0,0-1.453,5.812,15.316,15.316,0,0,0,.678,4.63A8.039,8.039,0,0,0,33.947.58,4.665,4.665,0,0,0,37.3,1.9ZM33.606-20.779a1.713,1.713,0,0,1-1.35-.659,2.42,2.42,0,0,1-.56-1.622,2.445,2.445,0,0,1,.576-1.64,1.743,1.743,0,0,1,1.367-.677,1.682,1.682,0,0,1,1.367.677,2.537,2.537,0,0,1,.543,1.64,2.377,2.377,0,0,1-.576,1.622A1.76,1.76,0,0,1,33.606-20.779Zm6.47,0a1.713,1.713,0,0,1-1.35-.659,2.42,2.42,0,0,1-.56-1.622,2.445,2.445,0,0,1,.576-1.64,1.743,1.743,0,0,1,1.367-.677,1.682,1.682,0,0,1,1.367.677,2.537,2.537,0,0,1,.543,1.64,2.377,2.377,0,0,1-.576,1.622A1.76,1.76,0,0,1,40.077-20.779ZM50.045,1.665A2.023,2.023,0,0,0,51.653,1.1a2.57,2.57,0,0,0,.581-1.434q.1-.872.1-2.731V-11.9a15.621,15.621,0,0,1,.155-2.518l-2.751.116v-1.589h1.2a6.489,6.489,0,0,0,2.131-.252,3.816,3.816,0,0,0,1.24-.794h1.124q.155,1.511.194,3.836a9.428,9.428,0,0,1,2.77-2.828,6.507,6.507,0,0,1,3.739-1.24,3,3,0,0,1,1.937.62,2.193,2.193,0,0,1,.775,1.821,2.012,2.012,0,0,1-.484,1.24,1.644,1.644,0,0,1-1.375.62,1.746,1.746,0,0,1-1.395-.639,1.884,1.884,0,0,1-.426-1.53A4.619,4.619,0,0,0,58.2-13.911a9.692,9.692,0,0,0-2.538,3.1L55.7-1.28a16.6,16.6,0,0,1-.155,2.635l2.441-.116V2.827H50.045Zm16.428,9.88a2.023,2.023,0,0,0,1.608-.562,2.419,2.419,0,0,0,.562-1.395q.077-.833.116-2.77L68.836-11.9a15.62,15.62,0,0,1,.155-2.518l-2.751.155v-1.627a12.925,12.925,0,0,0,3.138-.252,3.22,3.22,0,0,0,1.395-.794h1.162q.155,1.9.155,2.092a9.089,9.089,0,0,1,2.79-1.685,8.749,8.749,0,0,1,3.216-.639,7.959,7.959,0,0,1,4.223,1.182,8.663,8.663,0,0,1,3.119,3.371A10.479,10.479,0,0,1,86.62-7.557a11.79,11.79,0,0,1-1.356,5.715,10.143,10.143,0,0,1-3.623,3.894,9.182,9.182,0,0,1-4.9,1.395,8.368,8.368,0,0,1-4.649-1.279V8.6a16.6,16.6,0,0,1-.155,2.635l2.441-.116v1.589h-7.9ZM76.663,1.9A4.752,4.752,0,0,0,79.82.773a7.232,7.232,0,0,0,2.073-3.138,13.263,13.263,0,0,0,.736-4.572,11.059,11.059,0,0,0-1.492-5.909A4.879,4.879,0,0,0,76.7-15.267a5.343,5.343,0,0,0-2.48.62A7.871,7.871,0,0,0,72.13-13.1q.039.271.039,2.363L72.13.386A7.261,7.261,0,0,0,76.663,1.9Zm22.665,1.55A9.367,9.367,0,0,1,94.5,2.188a8.875,8.875,0,0,1-3.39-3.6,11.388,11.388,0,0,1-1.24-5.4,10.879,10.879,0,0,1,1.24-5.095,9.878,9.878,0,0,1,3.468-3.816,9.14,9.14,0,0,1,5.056-1.434,8.22,8.22,0,0,1,3.991.969,7.007,7.007,0,0,1,2.828,2.886A9.719,9.719,0,0,1,107.5-8.6L93.865-8.37A13.806,13.806,0,0,0,95.4-1.125a5.282,5.282,0,0,0,4.862,2.6,8.227,8.227,0,0,0,3.661-.93,7.829,7.829,0,0,0,2.886-2.286l.93.775a9.037,9.037,0,0,1-3.816,3.332A10.883,10.883,0,0,1,99.328,3.447ZM103.861-10a7.352,7.352,0,0,0-1.046-3.991,3.461,3.461,0,0,0-3.138-1.666q-4.8,0-5.7,5.657Zm7.09,11.662a2.023,2.023,0,0,0,1.608-.562,2.57,2.57,0,0,0,.581-1.434q.1-.872.1-2.731V-11.9a15.622,15.622,0,0,1,.155-2.518l-2.751.116v-1.589h1.2a6.489,6.489,0,0,0,2.131-.252,3.816,3.816,0,0,0,1.24-.794h1.124q.155,1.511.194,3.836a9.428,9.428,0,0,1,2.77-2.828,6.507,6.507,0,0,1,3.739-1.24,3,3,0,0,1,1.937.62,2.193,2.193,0,0,1,.775,1.821,2.012,2.012,0,0,1-.484,1.24,1.643,1.643,0,0,1-1.375.62A1.746,1.746,0,0,1,122.5-13.5a1.884,1.884,0,0,1-.426-1.53,4.619,4.619,0,0,0-2.964,1.124,9.692,9.692,0,0,0-2.538,3.1l.039,9.531a16.6,16.6,0,0,1-.155,2.635l2.441-.116V2.827h-7.943Zm25.92,11.662a17.386,17.386,0,0,1-5.5-.736,6.966,6.966,0,0,1-3.177-1.937A3.918,3.918,0,0,1,127.185,8.1a4.152,4.152,0,0,1,1.085-2.848,6.8,6.8,0,0,1,2.48-1.8,4.563,4.563,0,0,1-2-1.162,2.692,2.692,0,0,1-.678-1.9,3.641,3.641,0,0,1,1.1-2.557,4.765,4.765,0,0,1,2.77-1.434,6.958,6.958,0,0,1-2.867-2.383,6.065,6.065,0,0,1-1.046-3.506,6.945,6.945,0,0,1,1.182-3.991A8.152,8.152,0,0,1,132.28-16.2a8.473,8.473,0,0,1,3.933-.969,9.1,9.1,0,0,1,4.921,1.434,5.893,5.893,0,0,1,1.879-2.712,4.388,4.388,0,0,1,2.809-1.046,2.087,2.087,0,0,1,1.511.523,1.873,1.873,0,0,1,.542,1.414,1.724,1.724,0,0,1-.407,1.065,1.407,1.407,0,0,1-1.182.523,1.7,1.7,0,0,1-1.124-.387,1.65,1.65,0,0,1-.581-.969,2.094,2.094,0,0,0-1.472.833,4.491,4.491,0,0,0-.775,1.724,6.386,6.386,0,0,1,1.511,2.092,6.051,6.051,0,0,1,.542,2.518,6.816,6.816,0,0,1-1.124,3.836,7.812,7.812,0,0,1-3,2.673,8.708,8.708,0,0,1-4.049.969q-.5,0-1.279-.077a6.754,6.754,0,0,0-1.317-.116,3.89,3.89,0,0,0-2.15.562,1.623,1.623,0,0,0-.872,1.375q0,1.124,1.414,1.492a25.112,25.112,0,0,0,4.824.484,17.184,17.184,0,0,1,7.148,1.53,4.5,4.5,0,0,1,2.383,4.281,4.889,4.889,0,0,1-1.375,3.448,8.787,8.787,0,0,1-3.564,2.247A13.542,13.542,0,0,1,136.871,13.327Zm-.542-17.4a3.751,3.751,0,0,0,3.2-1.472,6.228,6.228,0,0,0,1.1-3.836,8.358,8.358,0,0,0-1.182-4.572,3.719,3.719,0,0,0-3.313-1.86,3.813,3.813,0,0,0-3.216,1.53,6.322,6.322,0,0,0-1.162,3.933,7.72,7.72,0,0,0,1.22,4.552A3.886,3.886,0,0,0,136.329-4.07Zm.5,15.885a11.329,11.329,0,0,0,3.739-.562,5.8,5.8,0,0,0,2.46-1.511,3.042,3.042,0,0,0,.852-2.073,2.7,2.7,0,0,0-1.879-2.712,17.573,17.573,0,0,0-5.56-.852,35.439,35.439,0,0,1-3.991-.31,5.113,5.113,0,0,0-1.627,1.7,4.2,4.2,0,0,0-.581,2.131,3.467,3.467,0,0,0,1.8,3.041A8.835,8.835,0,0,0,136.833,11.816ZM149.5,1.665A2.023,2.023,0,0,0,151.11,1.1a2.57,2.57,0,0,0,.581-1.434q.1-.872.1-2.731V-21.388a23.264,23.264,0,0,1,.116-2.518l-2.751.155v-1.627a14.045,14.045,0,0,0,3.313-.271,3.626,3.626,0,0,0,1.53-.775h1.124l.039,25.145a15.7,15.7,0,0,1-.194,2.635l2.441-.116V2.827h-7.9ZM167.12-13.31a1.713,1.713,0,0,1-1.35-.659,2.42,2.42,0,0,1-.56-1.622,2.445,2.445,0,0,1,.576-1.64,1.743,1.743,0,0,1,1.367-.677,1.682,1.682,0,0,1,1.367.677,2.537,2.537,0,0,1,.543,1.64,2.377,2.377,0,0,1-.576,1.622A1.76,1.76,0,0,1,167.12-13.31Zm6.47,0a1.713,1.713,0,0,1-1.35-.659,2.42,2.42,0,0,1-.56-1.622,2.445,2.445,0,0,1,.576-1.64,1.743,1.743,0,0,1,1.367-.677,1.682,1.682,0,0,1,1.367.677,2.537,2.537,0,0,1,.543,1.64,2.377,2.377,0,0,1-.576,1.622A1.76,1.76,0,0,1,173.59-13.31ZM193.012,3.447a9.862,9.862,0,0,1-4.824-1.2A8.813,8.813,0,0,1,184.721-1.2a10.556,10.556,0,0,1-1.279-5.308,10.935,10.935,0,0,1,1.3-5.172,10.562,10.562,0,0,1,3.6-3.971,9.3,9.3,0,0,1,5.211-1.511,9.849,9.849,0,0,1,3.719.659,6.335,6.335,0,0,1,2.538,1.743,3.6,3.6,0,0,1,.91,2.363,2.167,2.167,0,0,1-.5,1.472,1.748,1.748,0,0,1-1.395.581,1.5,1.5,0,0,1-1.279-.562,1.926,1.926,0,0,1-.426-1.182,2.1,2.1,0,0,1,.581-1.55,2.611,2.611,0,0,0-1.647-1.647,7.025,7.025,0,0,0-2.422-.446,5.524,5.524,0,0,0-3.2.969,6.45,6.45,0,0,0-2.228,2.828,11.071,11.071,0,0,0-.814,4.456,11.982,11.982,0,0,0,.833,4.611A7.39,7.39,0,0,0,190.571.289a5.623,5.623,0,0,0,3.487,1.143,6.914,6.914,0,0,0,3.429-.949A7.678,7.678,0,0,0,200.141-1.9l1.007.775a9.461,9.461,0,0,1-3.7,3.409A9.682,9.682,0,0,1,193.012,3.447Zm10.81-1.782a2.023,2.023,0,0,0,1.608-.562,2.442,2.442,0,0,0,.562-1.414q.077-.852.077-2.751,0-.387.019-4.223t.019-14.1a23.26,23.26,0,0,1,.116-2.518l-2.751.155v-1.627a13.812,13.812,0,0,0,3.274-.271,3.626,3.626,0,0,0,1.53-.775H209.4V-8.1h1.55l4.727-4.959a13.489,13.489,0,0,1,2.286-2.053L215.329-15v-1.55h7.051v1.162a6.26,6.26,0,0,0-3.1,1.24,26.137,26.137,0,0,0-3.1,2.828l-3.022,3.177a4.424,4.424,0,0,1,1.22.794,12.587,12.587,0,0,1,1.182,1.3l2.751,3.526q.077.077.872,1.182a11.79,11.79,0,0,0,1.9,2.053A3.186,3.186,0,0,0,223,1.665V2.827h-3.526a2.443,2.443,0,0,1-1.743-.814,31.94,31.94,0,0,1-2.363-2.828l-1.511-2.131q-.852-1.2-1.608-2.228a10.977,10.977,0,0,0-1.259-1.492l-1.589.077V-1.28a16.6,16.6,0,0,1-.155,2.635l2.48-.116V2.827h-7.9Z" transform="translate(478 5227)" fill="#fff"/><path d="M9.725,10.581a9.838,9.838,0,0,1-4.9-1.258A9.362,9.362,0,0,1,1.3,5.817,10.017,10.017,0,0,1,0,.742C0,.492.007.242.02,0H3.956a15.224,15.224,0,0,0,.675,4.247A8.066,8.066,0,0,0,6.684,7.715a4.686,4.686,0,0,0,3.35,1.317A4.492,4.492,0,0,0,14.2,6.708,11.5,11.5,0,0,0,15.537.934c0-.313-.007-.627-.021-.934h3.971a11.537,11.537,0,0,1-1.3,5.235,10.189,10.189,0,0,1-3.526,3.913A8.982,8.982,0,0,1,9.725,10.581Z" transform="translate(639.208 5219.865)" fill="#fff" stroke="rgba(0,0,0,0)" stroke-miterlimit="10" stroke-width="1"/></g></g></g></svg>