<svg xmlns="http://www.w3.org/2000/svg" width="75" height="75" viewBox="0 0 75 75"><g transform="translate(-923 -29)"><path d="M53.5,22.026a55.164,55.164,0,0,1-6.72-.405A10.443,10.443,0,0,1,42.1,20.172a5.851,5.851,0,0,1-2.665-5.048,5.3,5.3,0,0,1,3.625-4.676,6.331,6.331,0,0,1,3.683,0,5.156,5.156,0,0,0-1.208-2.383,5.793,5.793,0,0,0-4.138-2.019h-.066c-2.929,0-5.793,1.878-8.474,3.707l-.174.116C17.123,20.28,4.528,20.689-1.546,20.847a1.084,1.084,0,0,1-1.113-1.055A1.084,1.084,0,0,1-1.6,18.678c11-.3,25.149-5.309,33.076-10.613l.141-.116c2.88-1.928,6.149-4.138,9.773-4.08a7.919,7.919,0,0,1,5.743,2.772,7.009,7.009,0,0,1,1.862,5.52l-.182,1.481-1.349-.629a5.106,5.106,0,0,0-3.7-.5,3.145,3.145,0,0,0-2.118,2.723A3.732,3.732,0,0,0,43.3,18.368a8.73,8.73,0,0,0,3.74,1.1c4.35.534,12.619-.087,16.969-.621A1.084,1.084,0,1,1,64.272,21c-2.29.28-8.464,1.036-10.771,1.026ZM9.46,37.906l9.152-9.219c1.73-1.746,3.683-3.716,5.9-4.361a4.311,4.311,0,0,1,4.419,1.167,7.274,7.274,0,0,0-4.46,4.609,9.037,9.037,0,0,0,1.415,8.358c2.416,2.913,7.382,3.757,12.223-.207a38.332,38.332,0,0,0,4.419-4.56A33.291,33.291,0,0,1,46.914,29.2,8.433,8.433,0,0,1,52.9,27.264a4.676,4.676,0,0,1,2.11.828c-1.73.828-4.014,2.483-4.187,5.362a5.793,5.793,0,0,0,3.848,5.635c2.011.7,11.237-2.495,12.892-2.859a1.084,1.084,0,0,0-.447-2.118c-1.514.323-10.326,3.43-11.775,2.925a3.633,3.633,0,0,1-2.383-3.451c.1-1.721,1.473-3.029,4.3-4.138l1.341-.513-.828-1.159A6.7,6.7,0,0,0,53.178,25.1a10.526,10.526,0,0,0-7.6,2.383,35.476,35.476,0,0,0-4.684,4.775,36.783,36.783,0,0,1-4.138,4.3c-2.83,2.325-6.893,3.252-9.186.521a6.86,6.86,0,0,1-1.026-6.264A4.782,4.782,0,0,1,30.678,27.4H32.25L31.7,25.923a6.3,6.3,0,0,0-7.771-3.7c-2.756.828-4.916,2.987-6.827,4.916L7.912,36.4C6.174,38.154,6.5,38.492,3.261,39.189s-8.079-.56-8.3,0A1.087,1.087,0,0,0-4.414,40.6c.51.2,7.129.918,7.675.919C5.9,41.514,8.235,39.164,9.46,37.906ZM59.341,58.272c.574-.171,2.135-.775,1.964-1.349a1.084,1.084,0,0,0-1.349-.728c-2.375.7-5.081,1.506-7.547,1a5.925,5.925,0,0,1-4.725-5.023,3.161,3.161,0,0,1,.935-2.681,3.831,3.831,0,0,1,3.095-.976l2.64.306L52.7,46.752c-2.921-3.625-9.152-3.6-13.24-1.5a40.756,40.756,0,0,0-6.4,4.427,50.877,50.877,0,0,1-4.5,3.31c-6.695,4.22-15.533,5.172-26.241,2.847C1.724,55.7.6,53.615.466,54.209s3.125,4.951,2.8,4.062c11.288,2.483,19.248,1.117,26.423-3.409A52.736,52.736,0,0,0,34.377,51.4a37.794,37.794,0,0,1,6.041-4.2,10.628,10.628,0,0,1,8.672-.5,5.644,5.644,0,0,0-1.994,1.25,5.346,5.346,0,0,0-1.581,4.411,8.118,8.118,0,0,0,6.446,6.951,10.287,10.287,0,0,0,2.118.215A15.442,15.442,0,0,0,59.341,58.272Z" transform="translate(929.159 31.791)" fill="#16877d"/><g transform="translate(923 29)" fill="none" stroke="#16877d" stroke-width="2"><circle cx="37.5" cy="37.5" r="37.5" stroke="none"/><circle cx="37.5" cy="37.5" r="36.5" fill="none"/></g></g></svg>