<svg xmlns="http://www.w3.org/2000/svg" width="100" height="100" viewBox="0 0 100 100"><g transform="translate(-1623 -4475)"><g transform="translate(1056.875 -106.579)"><path d="M402.788,355.95a2.3,2.3,0,1,0,1.621.673,2.3,2.3,0,0,0-1.621-.673Zm0,3.088a.793.793,0,1,1,.792-.793A.792.792,0,0,1,402.788,359.038Z" transform="translate(222.403 4286.237)" fill="#16877d"/><path d="M202.859,215.453a4.6,4.6,0,0,0-4.534,3.849h-3.412a4.161,4.161,0,0,0-4.156,4.156v.493a4.16,4.16,0,0,0,4.156,4.156h4.936a2.654,2.654,0,0,1,0,5.308H185.295a2.658,2.658,0,0,1-2.654-2.655v-4.117h1.314a.751.751,0,0,0,.751-.751v-4.459a22.327,22.327,0,0,0,5.819-5.139.751.751,0,0,0-.125-1.049l-.92-.732c1.379-1.739,5.122-6.9,4.664-11.178-.325-3.043-4.466-4.369-6.134-4.781h0a2.794,2.794,0,0,0-2.726-2.2c-.022,0-.042.006-.064.006s-.042-.006-.064-.006a2.791,2.791,0,1,0,0,5.581c.022,0,.042-.006.064-.006s.042.006.064.006a2.789,2.789,0,0,0,2.619-1.859c1.753.464,4.55,1.582,4.747,3.42.394,3.682-3.08,8.472-4.348,10.082l-.99-.787a.751.751,0,0,0-1.057.122,16.3,16.3,0,0,1-4.363,3.845,16.216,16.216,0,0,1-4.369-3.845.751.751,0,0,0-1.057-.122l-.99.787c-1.268-1.61-4.742-6.4-4.348-10.082.2-1.879,3.122-3.007,4.865-3.451h0a2.777,2.777,0,1,0-.087-1.522c-1.553.367-5.936,1.676-6.272,4.814-.458,4.279,3.285,9.439,4.664,11.178l-.92.732h0a.749.749,0,0,0-.125,1.049,22.369,22.369,0,0,0,5.819,5.139v4.459a.751.751,0,0,0,.751.751h1.313v4.117h0a4.16,4.16,0,0,0,4.156,4.156h14.554a4.156,4.156,0,1,0,0-8.312h-4.936a2.658,2.658,0,0,1-2.654-2.654v-.494a2.658,2.658,0,0,1,2.654-2.654h3.412a4.6,4.6,0,1,0,4.534-5.351Zm-18.865-16.308a1.226,1.226,0,1,1,1.225,1.282A1.287,1.287,0,0,1,183.995,199.144Zm-5.371-1.289a1.289,1.289,0,1,1-1.289,1.289,1.29,1.29,0,0,1,1.289-1.289Zm1.54,22.456a19.346,19.346,0,0,1-5.246-4.369l.921-.733c.006,0,.013-.006.019-.011l.008-.01.968-.77a15.666,15.666,0,0,0,4.767,3.859.749.749,0,0,0,.59,0,15.748,15.748,0,0,0,4.757-3.858l.968.77.008.01c.006,0,.013.006.019.011l.921.733h0a19.315,19.315,0,0,1-5.246,4.369.751.751,0,0,0-.413.671v4.16h-1.226a.224.224,0,0,0-.174,0h-1.226v-4.16a.752.752,0,0,0-.413-.671Zm22.7,2.838a3.1,3.1,0,1,1,2.189-.908,3.1,3.1,0,0,1-2.189.908Z" transform="translate(422.332 4424.429)" fill="#16877d"/><path d="M185.564,81.1h-9.778V35.857a5.065,5.065,0,0,0-5.061-5.061H131.377a5.066,5.066,0,0,0-5.061,5.061V92.578a5.066,5.066,0,0,0,5.061,5.061h49.181a5.765,5.765,0,0,0,5.758-5.758V81.853a.749.749,0,0,0-.751-.751ZM175.036,96.138h-43.66a3.563,3.563,0,0,1-3.559-3.559V35.857a3.563,3.563,0,0,1,3.559-3.559h39.349a3.563,3.563,0,0,1,3.559,3.559V91.881a5.738,5.738,0,0,0,1.893,4.256Zm9.777-4.256a4.261,4.261,0,0,1-4.256,4.256h-.514a4.261,4.261,0,0,1-4.256-4.256V82.606h9.027Z" transform="translate(459.809 4567.783)" fill="#16877d"/><path d="M214.87,69.588h24.417a.751.751,0,1,0,0-1.5H214.87a.751.751,0,1,0,0,1.5Z" transform="translate(383.782 4535.494)" fill="#16877d"/><path d="M159.92,100.993h39.156a.751.751,0,1,0,0-1.5H159.92a.751.751,0,1,0,0,1.5Z" transform="translate(431.362 4508.301)" fill="#16877d"/><path d="M159.92,132.393h39.156a.751.751,0,1,0,0-1.5H159.92a.751.751,0,1,0,0,1.5Z" transform="translate(431.362 4481.112)" fill="#16877d"/><path d="M199.826,163.04a.751.751,0,0,0-.751-.751H159.918a.751.751,0,0,0,0,1.5h39.156a.751.751,0,0,0,.751-.751Z" transform="translate(431.364 4453.925)" fill="#16877d"/><path d="M371.122,203.409a7.332,7.332,0,1,0,5.176,2.147,7.324,7.324,0,0,0-5.176-2.147Zm0,13.144h0a5.828,5.828,0,1,1,4.114-1.707,5.821,5.821,0,0,1-4.114,1.707Z" transform="translate(254.176 4418.32)" fill="#16877d"/><path d="M393.151,237.176l-3.478,3.752-2.926-1.357a.751.751,0,1,0-.632,1.363l3.422,1.586a.752.752,0,0,0,.867-.171l3.849-4.152h0a.751.751,0,0,0-1.1-1.021Z" transform="translate(235.231 4389.29)" fill="#16877d"/></g><rect width="100" height="100" transform="translate(1623 4475)" fill="none"/></g></svg>