<svg xmlns="http://www.w3.org/2000/svg" width="100" height="100" viewBox="0 0 100 100"><g transform="translate(-1444 -4630)"><path d="M167.972,144.066a5.132,5.132,0,0,0-9.129-2.8,5.108,5.108,0,1,0-7.289,7.059l6.7,5.688a.912.912,0,0,0,1.181,0l6.7-5.687a4.922,4.922,0,0,0,1.842-4.259Zm-1.882,1.091a3.317,3.317,0,0,1-1.14,1.778l-6.106,5.187-6.108-5.188a3.244,3.244,0,0,1,1.769-5.759c.108-.011.216-.016.321-.016a3.284,3.284,0,0,1,3.148,2.3.912.912,0,0,0,1.738,0,3.285,3.285,0,0,1,3.469-2.285h0a3.308,3.308,0,0,1,2.908,3.982Zm-15.711,4.978h-4.6l-2.275-3.9a.912.912,0,0,0-1.615.076l-3.458,7.474-4.255-20.871a.912.912,0,0,0-.882-.73.9.9,0,0,0-.9.707l-3.6,15.627-2.031-2.958a.913.913,0,0,0-1.456-.063l-3.549,4.317h-2.6a18.839,18.839,0,0,0-9.885-10.662,16.186,16.186,0,0,0,5.522-6.208,3.75,3.75,0,0,0,.921.116,4.363,4.363,0,0,0,4.091-3.306,4.494,4.494,0,0,0-.415-3.418,3.824,3.824,0,0,0-2.354-1.809,3.7,3.7,0,0,0-.406-.059v-.533a.9.9,0,0,0,.347-.517,17.583,17.583,0,0,0,.5-4.1c0-8.821-6.627-14.3-17.294-14.3s-17.3,5.48-17.3,14.3a17.7,17.7,0,0,0,.354,3.516.909.909,0,0,0,.494.633v1a3.7,3.7,0,0,0-.407.059,3.819,3.819,0,0,0-2.353,1.809,4.49,4.49,0,0,0-.415,3.418,4.363,4.363,0,0,0,4.091,3.306,3.756,3.756,0,0,0,.922-.116,16.184,16.184,0,0,0,5.522,6.208,18.776,18.776,0,0,0-11.04,17.08V160.2a1.826,1.826,0,0,0,1.824,1.824h36.606a1.826,1.826,0,0,0,1.824-1.824v-3.962a18.647,18.647,0,0,0-.593-4.594h2.472a.91.91,0,0,0,.7-.333l3.052-3.714,2.52,3.668a.913.913,0,0,0,1.641-.312l3.127-13.557,3.971,19.48a.913.913,0,0,0,.788.723.846.846,0,0,0,.106.006.914.914,0,0,0,.828-.529l3.89-8.408,1.657,2.84a.912.912,0,0,0,.788.452h5.12a.912.912,0,1,0,0-1.823Zm-33.8-23.835h0a2.012,2.012,0,0,1,1.233.959,2.658,2.658,0,0,1,.232,2.023,2.489,2.489,0,0,1-2.507,1.941,17.107,17.107,0,0,0,1.039-4.923h0Zm-34.257,2.982a2.662,2.662,0,0,1,.232-2.023,2.014,2.014,0,0,1,1.233-.959h0a17.1,17.1,0,0,0,1.039,4.923,2.488,2.488,0,0,1-2.507-1.94Zm2.391-9.957c0-7.813,5.783-12.477,15.471-12.477s15.47,4.664,15.47,12.477a15.441,15.441,0,0,1-.272,2.838c-4.565-.82-7.554-1.9-10.628-4.926a1.832,1.832,0,0,0-2.36-.184c-5.888,4.227-14.357,5.109-17.476,4.8a15.725,15.725,0,0,1-.2-2.527Zm.849,5.885v-1.483c4.233.177,12.307-1.178,17.913-5.191,3.329,3.278,6.634,4.506,11.332,5.374v1.3c0,8.053-6.143,14.6-13.7,14.6H99.253c-7.551,0-13.695-6.551-13.695-14.6ZM93.133,140.3a14.7,14.7,0,0,0,6.121,1.337h1.855a14.7,14.7,0,0,0,6.121-1.337,16.879,16.879,0,0,1,2.826,1.314,22,22,0,0,1-19.748,0,16.821,16.821,0,0,1,2.826-1.314Zm25.351,19.9H81.878v-3.962A16.9,16.9,0,0,1,88.6,142.76a23.38,23.38,0,0,0,23.162,0,16.9,16.9,0,0,1,6.722,13.478ZM96.95,126.269c0,1.346-1.477,2.4-3.362,2.4s-3.362-1.054-3.362-2.4a.912.912,0,0,1,1.825,0c0,.11.513.575,1.537.575s1.538-.465,1.538-.575a.912.912,0,1,1,1.824,0Zm6.461,0a.912.912,0,0,1,1.825,0c0,.11.513.575,1.537.575s1.537-.465,1.537-.575a.912.912,0,1,1,1.825,0c0,1.346-1.476,2.4-3.362,2.4s-3.362-1.054-3.362-2.4Zm-3.231,9.164c-1.715,0-3.548-.463-3.548-1.759a.912.912,0,0,1,1.756-.347,5.846,5.846,0,0,0,3.583,0,.912.912,0,0,1,1.756.347c0,1.3-1.832,1.759-3.547,1.759Z" transform="translate(1369.946 4545.976)" fill="#16877d"/><rect width="100" height="100" transform="translate(1444 4630)" fill="none"/></g></svg>