<svg xmlns="http://www.w3.org/2000/svg" width="547.776" height="98.496" viewBox="0 0 547.776 98.496"><g transform="translate(5436.584 252.48)"><path d="M-271.584-3.168q3.36-.1,4.8-1.536a5.443,5.443,0,0,0,1.632-3.408q.192-1.968.192-6.864V-56.448q0-4.032.288-6.912l-6.912.384V-67.2h21.6v3.168q-3.36.1-4.8,1.536a5.443,5.443,0,0,0-1.632,3.408q-.192,1.968-.192,6.864V-36.48h7.2l12-18.912a36.568,36.568,0,0,1,6.816-8.064l-5.856.192V-67.2h20.64v3.168a30.976,30.976,0,0,0-7.44,1.44,16.926,16.926,0,0,0-5.9,3.744,38.667,38.667,0,0,0-6.048,7.776L-244.608-36.1a20.024,20.024,0,0,1,3.648,2.928A34.461,34.461,0,0,1-238.224-30q1.2,1.584,1.584,2.064l10.752,14.3a57.129,57.129,0,0,0,5.9,6.912,13.777,13.777,0,0,0,4.08,2.88,11.387,11.387,0,0,0,4.128.672V0h-11.712q-2.5,0-9.7-9.408L-244.7-24.96q-2.3-2.976-3.984-4.9a15.017,15.017,0,0,0-3.216-2.88l-4.7.1v21.216A72.474,72.474,0,0,1-256.9-3.84l6.912-.384V0h-21.6Zm86.88,4.7a24.254,24.254,0,0,1-12.144-3.12,23.006,23.006,0,0,1-8.736-8.688A24.683,24.683,0,0,1-208.8-22.848a29.011,29.011,0,0,1,3.168-13.584,24.5,24.5,0,0,1,8.688-9.6,22.372,22.372,0,0,1,12.24-3.5,23.947,23.947,0,0,1,12.192,3.216,23.613,23.613,0,0,1,8.784,8.784,24.311,24.311,0,0,1,3.216,12.384,28.539,28.539,0,0,1-3.216,13.44,25.135,25.135,0,0,1-8.736,9.7A22.15,22.15,0,0,1-184.7,1.536Zm.768-3.84q7.008,0,10.32-5.76t3.312-14.3a35.549,35.549,0,0,0-3.6-16.608q-3.6-6.912-10.8-6.912a11.767,11.767,0,0,0-10.7,5.856q-3.6,5.856-3.6,14.4a37.95,37.95,0,0,0,1.68,11.472,19.918,19.918,0,0,0,5.088,8.592A11.559,11.559,0,0,0-183.936-2.3Zm-9.148-56.187a4.244,4.244,0,0,1-3.346-1.633,6,6,0,0,1-1.387-4.019,6.059,6.059,0,0,1,1.427-4.063A4.318,4.318,0,0,1-193-69.883a4.168,4.168,0,0,1,3.386,1.678,6.287,6.287,0,0,1,1.346,4.063,5.889,5.889,0,0,1-1.428,4.019A4.362,4.362,0,0,1-193.085-58.491Zm16.032,0a4.244,4.244,0,0,1-3.346-1.633,6,6,0,0,1-1.387-4.019,6.059,6.059,0,0,1,1.427-4.063,4.318,4.318,0,0,1,3.386-1.678,4.168,4.168,0,0,1,3.386,1.678,6.287,6.287,0,0,1,1.346,4.063,5.889,5.889,0,0,1-1.428,4.019A4.362,4.362,0,0,1-177.053-58.491Zm24.7,55.611a5.012,5.012,0,0,0,3.984-1.392,6.369,6.369,0,0,0,1.44-3.552q.24-2.16.24-6.768V-36.48a38.705,38.705,0,0,1,.384-6.24l-6.816.288v-3.936h2.976a16.077,16.077,0,0,0,5.28-.624,9.455,9.455,0,0,0,3.072-1.968h2.784q.384,3.744.48,9.5a23.361,23.361,0,0,1,6.864-7.008,16.124,16.124,0,0,1,9.264-3.072A7.44,7.44,0,0,1-117.6-48a5.434,5.434,0,0,1,1.92,4.512,4.985,4.985,0,0,1-1.2,3.072,4.072,4.072,0,0,1-3.408,1.536,4.326,4.326,0,0,1-3.456-1.584,4.669,4.669,0,0,1-1.056-3.792,11.446,11.446,0,0,0-7.344,2.784,24.013,24.013,0,0,0-6.288,7.68l.1,23.616a41.137,41.137,0,0,1-.384,6.528l6.048-.288V0h-19.68Zm40.7,24.48a5.012,5.012,0,0,0,3.984-1.392,5.994,5.994,0,0,0,1.392-3.456q.192-2.064.288-6.864l.192-46.368a38.705,38.705,0,0,1,.384-6.24l-6.816.384v-4.032a32.024,32.024,0,0,0,7.776-.624,7.978,7.978,0,0,0,3.456-1.968h2.88q.384,4.7.384,5.184a22.521,22.521,0,0,1,6.912-4.176,21.678,21.678,0,0,1,7.968-1.584,19.721,19.721,0,0,1,10.464,2.928,21.464,21.464,0,0,1,7.728,8.352,25.964,25.964,0,0,1,2.928,12.528,29.212,29.212,0,0,1-3.36,14.16A25.131,25.131,0,0,1-74.064-1.92,22.752,22.752,0,0,1-86.208,1.536a20.734,20.734,0,0,1-11.52-3.168V14.3a41.137,41.137,0,0,1-.384,6.528l6.048-.288V24.48h-19.584ZM-86.4-2.3a11.775,11.775,0,0,0,7.824-2.784,17.918,17.918,0,0,0,5.136-7.776,32.863,32.863,0,0,0,1.824-11.328,27.4,27.4,0,0,0-3.7-14.64,12.088,12.088,0,0,0-10.992-6A13.239,13.239,0,0,0-92.448-43.3a19.5,19.5,0,0,0-5.184,3.84q.1.672.1,5.856l-.1,27.552A17.99,17.99,0,0,0-86.4-2.3Zm56.16,3.84a23.21,23.21,0,0,1-11.952-3.12,21.989,21.989,0,0,1-8.4-8.928A28.218,28.218,0,0,1-53.664-23.9a26.956,26.956,0,0,1,3.072-12.624A24.476,24.476,0,0,1-42-45.984a22.647,22.647,0,0,1,12.528-3.552,20.367,20.367,0,0,1,9.888,2.4,17.362,17.362,0,0,1,7.008,7.152A24.082,24.082,0,0,1-9.984-28.32l-33.792.576q-.1,11.52,3.792,17.952T-27.936-3.36a20.385,20.385,0,0,0,9.072-2.3,19.4,19.4,0,0,0,7.152-5.664l2.3,1.92a22.393,22.393,0,0,1-9.456,8.256A26.965,26.965,0,0,1-30.24,1.536Zm11.232-33.312A18.216,18.216,0,0,0-21.6-41.664a8.576,8.576,0,0,0-7.776-4.128q-11.9,0-14.112,14.016ZM-1.44-2.88A5.012,5.012,0,0,0,2.544-4.272a6.369,6.369,0,0,0,1.44-3.552q.24-2.16.24-6.768V-36.48a38.7,38.7,0,0,1,.384-6.24l-6.816.288v-3.936H.768a16.077,16.077,0,0,0,5.28-.624A9.455,9.455,0,0,0,9.12-48.96H11.9q.384,3.744.48,9.5a23.361,23.361,0,0,1,6.864-7.008,16.124,16.124,0,0,1,9.264-3.072A7.44,7.44,0,0,1,33.312-48a5.434,5.434,0,0,1,1.92,4.512,4.985,4.985,0,0,1-1.2,3.072,4.072,4.072,0,0,1-3.408,1.536,4.326,4.326,0,0,1-3.456-1.584,4.669,4.669,0,0,1-1.056-3.792,11.446,11.446,0,0,0-7.344,2.784,24.014,24.014,0,0,0-6.288,7.68l.1,23.616a41.137,41.137,0,0,1-.384,6.528l6.048-.288V0H-1.44Zm64.224,28.9a43.079,43.079,0,0,1-13.632-1.824q-5.376-1.824-7.872-4.8a9.707,9.707,0,0,1-2.5-6.336A10.289,10.289,0,0,1,41.472,6a16.851,16.851,0,0,1,6.144-4.464,11.307,11.307,0,0,1-4.944-2.88,6.671,6.671,0,0,1-1.68-4.7,9.021,9.021,0,0,1,2.736-6.336,11.806,11.806,0,0,1,6.864-3.552,17.242,17.242,0,0,1-7.1-5.9A15.027,15.027,0,0,1,40.9-30.528a17.207,17.207,0,0,1,2.928-9.888,20.2,20.2,0,0,1,7.584-6.72,20.993,20.993,0,0,1,9.744-2.4,22.535,22.535,0,0,1,12.192,3.552A14.6,14.6,0,0,1,78-52.7,10.873,10.873,0,0,1,84.96-55.3,5.171,5.171,0,0,1,88.7-54a4.641,4.641,0,0,1,1.344,3.5,4.272,4.272,0,0,1-1.008,2.64,3.486,3.486,0,0,1-2.928,1.3,4.206,4.206,0,0,1-2.784-.96,4.088,4.088,0,0,1-1.44-2.4,5.189,5.189,0,0,0-3.648,2.064,11.126,11.126,0,0,0-1.92,4.272A15.821,15.821,0,0,1,80.064-38.4a14.993,14.993,0,0,1,1.344,6.24,16.888,16.888,0,0,1-2.784,9.5,19.355,19.355,0,0,1-7.44,6.624,21.578,21.578,0,0,1-10.032,2.4q-1.248,0-3.168-.192a16.733,16.733,0,0,0-3.264-.288,9.638,9.638,0,0,0-5.328,1.392,4.021,4.021,0,0,0-2.16,3.408q0,2.784,3.5,3.7a62.223,62.223,0,0,0,11.952,1.2Q74.5-3.84,80.4-.624T86.3,9.984A12.115,12.115,0,0,1,82.9,18.528,21.772,21.772,0,0,1,74.064,24.1,33.555,33.555,0,0,1,62.784,26.016Zm-1.344-43.1a9.294,9.294,0,0,0,7.92-3.648,15.431,15.431,0,0,0,2.736-9.5,20.71,20.71,0,0,0-2.928-11.328,9.215,9.215,0,0,0-8.208-4.608,9.447,9.447,0,0,0-7.968,3.792,15.665,15.665,0,0,0-2.88,9.744q0,7.008,3.024,11.28A9.63,9.63,0,0,0,61.44-17.088Zm1.248,39.36a28.07,28.07,0,0,0,9.264-1.392,14.379,14.379,0,0,0,6.1-3.744A7.537,7.537,0,0,0,80.16,12,6.689,6.689,0,0,0,75.5,5.28Q70.848,3.456,61.728,3.168A87.809,87.809,0,0,1,51.84,2.4a12.669,12.669,0,0,0-4.032,4.224,10.4,10.4,0,0,0-1.44,5.28q0,4.7,4.464,7.536T62.688,22.272ZM94.08-2.88a5.012,5.012,0,0,0,3.984-1.392A6.369,6.369,0,0,0,99.5-7.824q.24-2.16.24-6.768V-60a57.64,57.64,0,0,1,.288-6.24l-6.816.384v-4.032a34.8,34.8,0,0,0,8.208-.672,8.984,8.984,0,0,0,3.792-1.92H108l.1,62.3a38.889,38.889,0,0,1-.48,6.528l6.048-.288V0H94.08ZM201.888,1.536A24.435,24.435,0,0,1,189.936-1.44a21.838,21.838,0,0,1-8.592-8.544,26.155,26.155,0,0,1-3.168-13.152,27.094,27.094,0,0,1,3.216-12.816,26.17,26.17,0,0,1,8.928-9.84,23.031,23.031,0,0,1,12.912-3.744,24.4,24.4,0,0,1,9.216,1.632,15.7,15.7,0,0,1,6.288,4.32,8.923,8.923,0,0,1,2.256,5.856,5.37,5.37,0,0,1-1.248,3.648,4.331,4.331,0,0,1-3.456,1.44,3.725,3.725,0,0,1-3.168-1.392,4.773,4.773,0,0,1-1.056-2.928,5.19,5.19,0,0,1,1.44-3.84,6.47,6.47,0,0,0-4.08-4.08,17.405,17.405,0,0,0-6-1.1,13.688,13.688,0,0,0-7.92,2.4,15.981,15.981,0,0,0-5.52,7.008,27.431,27.431,0,0,0-2.016,11.04,29.689,29.689,0,0,0,2.064,11.424,18.312,18.312,0,0,0,5.808,7.824,13.932,13.932,0,0,0,8.64,2.832,17.132,17.132,0,0,0,8.5-2.352,19.024,19.024,0,0,0,6.576-5.9l2.5,1.92a23.441,23.441,0,0,1-9.168,8.448A23.99,23.99,0,0,1,201.888,1.536ZM228.672-2.88a5.012,5.012,0,0,0,3.984-1.392,6.052,6.052,0,0,0,1.392-3.5q.192-2.112.192-6.816,0-.96.048-10.464T234.336-60a57.64,57.64,0,0,1,.288-6.24l-6.816.384v-4.032a34.223,34.223,0,0,0,8.112-.672,8.984,8.984,0,0,0,3.792-1.92H242.5v45.408h3.84L258.048-39.36a33.421,33.421,0,0,1,5.664-5.088l-6.528.288V-48h17.472v2.88a15.511,15.511,0,0,0-7.68,3.072,64.762,64.762,0,0,0-7.68,7.008l-7.488,7.872a10.961,10.961,0,0,1,3.024,1.968,31.183,31.183,0,0,1,2.928,3.216l6.816,8.736q.192.192,2.16,2.928a29.208,29.208,0,0,0,4.7,5.088q2.736,2.352,4.752,2.352V0h-8.736a6.054,6.054,0,0,1-4.32-2.016,79.137,79.137,0,0,1-5.856-7.008l-3.744-5.28q-2.112-2.976-3.984-5.52a27.2,27.2,0,0,0-3.12-3.7l-3.936.192v13.152a41.139,41.139,0,0,1-.384,6.528l6.144-.288V0H228.672Z" transform="translate(-5165 -180)" fill="#232323"/><g transform="translate(145 321.546)"><path d="M30.952,90.536a24.365,24.365,0,0,1-12.144-3.12,23.109,23.109,0,0,1-8.736-8.688A24.8,24.8,0,0,1,6.856,66.152c0-.051,0-.1,0-.152h9.871a36.941,36.941,0,0,0,1.6,8.841,20.014,20.014,0,0,0,5.089,8.591,11.606,11.606,0,0,0,8.3,3.264,11.119,11.119,0,0,0,10.32-5.76c2.2-3.823,3.312-8.635,3.312-14.3,0-.209,0-.422,0-.633h9.724a28.282,28.282,0,0,1-3.144,11.289,25.246,25.246,0,0,1-8.736,9.7A22.251,22.251,0,0,1,30.952,90.536Z" transform="translate(-5195.856 -591)" fill="#232323"/><path d="M-85.719-35.7a4.244,4.244,0,0,1-3.346-1.633,6,6,0,0,1-1.387-4.019,6.059,6.059,0,0,1,1.427-4.063,4.318,4.318,0,0,1,3.386-1.678,4.168,4.168,0,0,1,3.386,1.678,6.287,6.287,0,0,1,1.346,4.063,5.889,5.889,0,0,1-1.428,4.019A4.362,4.362,0,0,1-85.719-35.7Zm16.032,0a4.244,4.244,0,0,1-3.346-1.633,6,6,0,0,1-1.387-4.019,6.059,6.059,0,0,1,1.427-4.063,4.318,4.318,0,0,1,3.386-1.678,4.168,4.168,0,0,1,3.386,1.678,6.287,6.287,0,0,1,1.346,4.063A5.889,5.889,0,0,1-66.3-37.333,4.362,4.362,0,0,1-69.687-35.7Z" transform="translate(-5087.548 -502)" fill="#232323"/></g></g></svg>